<svg width="271" height="271" viewBox="0 0 271 271" fill="none" xmlns="http://www.w3.org/2000/svg">
<path d="M0 135.765C0 61.1883 60.4562 0.732117 135.033 0.732117C209.609 0.732117 270.065 61.1883 270.065 135.765C270.065 210.341 209.609 270.797 135.033 270.797C60.4562 270.797 0 210.341 0 135.765Z" fill="white"/>
<g clip-path="url(#clip0)">
<path d="M18.2114 198.757C20.966 196.734 26.5901 198.097 30.743 199.563C31.3586 198.683 32.1203 197.782 33.028 196.902C24.0859 191.119 11.7317 178.776 18.2844 177.739C23.9711 176.828 31.6507 187.934 35.7618 194.691C40.019 191.81 46.5509 189.694 56.526 190.427C82.4031 192.334 102.625 175.57 117.525 181.165C129.378 185.608 140.23 188.101 150.706 187.253C150.257 179.573 150.153 164.485 156.163 162.924C162.257 161.332 156.278 178.462 152.96 187.012C153.742 186.907 154.514 186.792 155.297 186.655C157.446 182.391 160.994 176.817 164.897 176.629C168.569 176.45 164.041 181.469 159.585 185.712C172.388 183.009 187.581 193.466 187.831 205.829H27.9465C27.9465 205.829 28.2283 204.027 29.4804 201.648C23.2824 201.512 15.2167 200.957 18.2114 198.757Z" fill="#A8D29F"/>
<path d="M152.928 196.263H195.062V205.818H152.928V196.263Z" fill="#4A75CB"/>
<path d="M165.929 196.263H208.063V205.818H165.929V196.263Z" fill="#699DEE"/>
<path d="M136.354 205.819H104.978V161.783H136.354V205.819Z" fill="#D86713"/>
<path d="M146.03 205.819H114.654V161.783H146.03V205.819Z" fill="#F1A34F"/>
<path d="M114.645 161.782L104.972 168.393V161.782H114.645Z" fill="#C95C12"/>
<path d="M209.419 171.537C209.419 171.537 215.284 175.916 216.431 175.654C217.579 175.392 212.143 170.929 212.143 170.929C214.188 169.944 220.542 170.562 220.542 170.562C220.542 170.562 222.661 177.414 223.704 176.88C224.747 176.335 221.523 170.908 221.523 170.908C223.798 170.772 226.594 172.469 226.594 172.469C230.413 175.497 226.344 180.275 226.344 180.275C226.344 180.275 227.126 182.632 229.547 184.78C229.547 184.78 232.99 187.336 233.23 191.915L232.604 191.967C232.604 191.967 231.613 187.703 229.808 185.691C229.735 185.618 229.641 185.513 229.505 185.388C229.213 185.115 229.005 184.906 228.869 184.759C227.972 183.889 226.73 182.789 226.135 182.684C226.135 182.684 226.166 182.569 226.156 182.381C226.146 182.475 226.135 182.58 226.135 182.684C225.926 185.094 221.273 187.2 218.403 187.64C215.534 188.07 216.421 186.886 217.412 185.136C218.403 183.386 221.523 182.601 222.243 181.783C222.953 180.977 221.481 180.977 219.749 181.762C218.017 182.559 217.788 184.665 215.012 185.995C212.237 187.326 208.073 182.705 208.073 182.705C210.285 182.59 213.437 180.18 213.322 179.447C213.207 178.713 207.969 180.715 207.072 180.819C206.174 180.914 204.14 179.793 203.827 176.178C203.503 172.542 209.419 171.537 209.419 171.537Z" fill="#82B378"/>
<path d="M240.587 174.261C240.587 174.261 234.107 170.615 237.133 165.669C237.133 165.669 239.554 162.631 242.141 161.856C242.141 161.856 240.764 169.232 242.141 169.41C243.529 169.588 243.091 161.08 243.091 161.08C243.091 161.08 249.915 157.78 252.596 158.042C252.596 158.042 248.36 165.24 249.748 165.072C251.136 164.894 255.883 157.612 255.883 157.612C255.883 157.612 262.885 156.313 264.001 160.473C265.128 164.622 263.312 166.707 262.269 166.968C261.236 167.23 254.579 167.147 254.746 168.006C254.923 168.875 259.41 170.258 261.914 169.483C261.914 169.483 259.149 176.335 255.518 175.989C251.887 175.644 250.77 173.391 248.517 173.213C246.263 173.035 244.625 173.642 245.752 174.25C246.878 174.858 250.677 174.449 252.492 176C254.308 177.551 255.779 178.504 252.409 179.195C249.038 179.887 242.986 179.457 241.776 176.849C240.587 174.261 240.587 174.261 240.587 174.261Z" fill="#A8D29F"/>
<path d="M238.854 180.589C240.67 177.205 240.586 174.25 240.586 174.25C242.652 167.66 260.808 161.761 260.808 161.761C237.738 171.128 241.797 176.859 241.797 176.859C241.171 177.226 240.242 178.965 239.595 180.296C239.501 180.526 239.355 180.84 239.136 181.26C239.053 181.448 238.98 181.605 238.927 181.721C237.738 184.707 238.364 189.861 238.364 189.861L237.644 190.06C236.058 184.853 238.854 180.589 238.854 180.589Z" fill="#82B378"/>
<path d="M230.278 169.231C230.278 169.231 238.823 164.422 234.837 157.906C234.837 157.906 231.644 153.903 228.232 152.876C228.232 152.876 230.058 162.599 228.232 162.83C226.406 163.06 226.98 151.85 226.98 151.85C226.98 151.85 217.986 147.502 214.449 147.847C214.449 147.847 220.031 157.34 218.205 157.109C216.379 156.879 210.119 147.271 210.119 147.271C210.119 147.271 200.895 145.553 199.413 151.043C197.931 156.533 200.321 159.278 201.688 159.624C203.055 159.97 211.83 159.854 211.6 160.996C211.371 162.138 205.444 163.972 202.147 162.945C202.147 162.945 205.788 171.977 210.578 171.526C215.367 171.065 216.838 168.089 219.802 167.869C222.765 167.639 224.925 168.446 223.443 169.242C221.961 170.038 216.953 169.504 214.553 171.547C212.164 173.59 210.223 174.847 214.668 175.759C219.113 176.67 227.085 176.105 228.681 172.668C230.278 169.231 230.278 169.231 230.278 169.231Z" fill="#A8D29F"/>
<path d="M203.618 152.761C203.618 152.761 227.544 160.535 230.277 169.232C230.277 169.232 230.163 173.119 232.552 177.582C232.552 177.582 236.246 183.208 234.138 190.05L233.188 189.799C233.188 189.799 234.023 183.009 232.448 179.07C232.385 178.923 232.291 178.714 232.176 178.462C231.895 177.896 231.696 177.488 231.582 177.184C230.726 175.424 229.495 173.14 228.681 172.658C228.681 172.658 234.034 165.114 203.618 152.761Z" fill="#82B378"/>
<path d="M230.559 204.896C221.315 204.896 213.823 197.374 213.823 188.091H247.296C247.296 197.374 239.804 204.896 230.559 204.896Z" fill="#F1A34F"/>
<path d="M226.438 204.771C227.116 204.854 227.815 204.896 228.514 204.896C237.759 204.896 245.251 197.374 245.251 188.091H241.098C241.098 196.672 234.702 203.744 226.438 204.771Z" fill="#FFB973"/>
<path d="M215.659 203.744H245.459C246.597 203.744 247.525 204.676 247.525 205.818H213.593C213.593 204.676 214.522 203.744 215.659 203.744Z" fill="#F1A34F"/>
<path d="M213.698 188.101H247.588C247.734 188.101 247.849 188.216 247.849 188.363C247.849 188.51 247.734 188.625 247.588 188.625H213.698C213.551 188.625 213.437 188.51 213.437 188.363C213.437 188.216 213.562 188.101 213.698 188.101Z" fill="#D86713"/>
<path d="M86.6499 99.6098C87.1299 99.5365 88.6011 100.888 88.6011 100.888C91.721 101.255 96.2808 102.082 97.9294 102.397C99.0981 102.617 102.228 101.548 105.286 100.322C108.927 98.8554 112.464 97.1686 112.464 97.1686C114.478 97.0638 116.774 100.762 112.684 103.12C112.057 103.476 109.71 104.094 107.007 104.649C103.272 105.425 98.8685 106.095 97.366 105.854C95.6234 105.582 90.688 103.769 87.756 102.386C87.756 102.386 87.756 102.386 87.7455 102.386C87.7351 102.386 87.7247 102.376 87.7142 102.376C87.5368 102.292 86.8169 101.967 86.3369 101.999C85.7839 102.03 84.5631 101.024 84.5213 100.752C84.49 100.469 86.1699 99.6831 86.6499 99.6098Z" fill="#ED975D"/>
<path d="M90.4689 146.202L92.1906 146.548C92.1906 146.548 100.058 137.674 101.268 133.944C101.915 131.953 106.068 131.084 110.409 129.963C114.186 128.978 118.099 127.804 119.977 125.499C123.994 120.543 117.452 114.467 117.452 114.467C117.452 114.467 110.492 118.626 104.482 122.911C100.288 125.908 96.5521 128.978 95.9886 130.738C94.6113 135.023 91.7211 143.164 90.4689 146.202Z" fill="#2B478B"/>
<path d="M92.7645 149.126H91.7941C91.4707 149.073 91.2307 148.979 90.8968 148.937C90.396 148.874 90.156 149.073 90.1142 149.126C90.1038 149.136 90.1038 149.136 90.1038 149.136H85.9927C85.8884 148.989 85.9927 148.644 86.0866 148.392C86.1493 148.225 86.2953 148.088 86.4727 148.036C86.9109 147.91 87.7665 147.795 88.5491 147.082C88.9873 146.684 90.6881 145.605 90.6881 145.605H90.6985C90.7403 145.605 90.9177 145.658 91.6794 146.318C92.0759 146.653 92.7541 145.846 92.7541 145.846C92.7541 145.846 92.8793 145.951 92.9732 146.15C93.0462 146.307 93.1088 146.517 93.0567 146.779C92.9941 147.145 93.1923 147.837 93.3488 148.308C93.4427 148.591 93.5262 148.79 93.5262 148.79C93.5262 148.79 93.5992 149.021 92.7645 149.126Z" fill="#233862"/>
<path d="M104.472 122.911L110.398 129.963C114.176 128.978 118.088 127.804 119.967 125.499C123.984 120.543 117.442 114.467 117.442 114.467C117.442 114.467 110.482 118.616 104.472 122.911Z" fill="#1E3D70"/>
<path d="M109.856 119.223C109.856 119.223 110.336 120.732 111.108 123.016C112.089 125.897 113.56 129.994 115.146 133.797C115.49 134.635 115.856 135.453 116.21 136.249C117.535 139.172 118.882 141.687 120.081 142.954C122.221 145.249 127.427 159.969 127.427 159.969L128.721 159.613C128.721 159.613 130.526 147.04 124.12 139.884C124.047 139.811 123.994 139.717 123.994 139.623C123.911 138.564 123.608 133.818 122.94 129.009C122.774 127.825 122.596 126.652 122.387 125.51C122.377 125.436 122.356 125.363 122.346 125.29C121.375 120.051 120.436 117.725 119.236 116.551L110.378 119.087L109.856 119.223Z" fill="#2B478B"/>
<path d="M128.867 161.772H127.897C127.573 161.719 127.333 161.625 126.999 161.583C126.498 161.52 126.259 161.719 126.217 161.772C126.206 161.782 126.206 161.782 126.206 161.782H122.095C121.991 161.635 122.095 161.29 122.189 161.038C122.252 160.871 122.398 160.734 122.575 160.682C123.013 160.556 123.869 160.441 124.652 159.729C125.09 159.33 126.791 158.251 126.791 158.251H126.801C126.843 158.251 127.02 158.304 127.782 158.964C128.178 159.299 128.857 158.492 128.857 158.492C128.857 158.492 128.982 158.597 129.076 158.796C129.149 158.953 129.211 159.163 129.159 159.425C129.097 159.791 129.295 160.483 129.451 160.954C129.545 161.237 129.629 161.436 129.629 161.436C129.629 161.436 129.702 161.667 128.867 161.772Z" fill="#233862"/>
<path d="M126.968 102.114C126.968 102.114 128.45 105.749 130.161 109.291C131.601 112.266 133.197 115.179 134.209 115.797C135.639 116.677 139.572 119.139 142.118 120.983C142.118 120.983 144.111 120.973 144.414 121.35C144.727 121.738 145.437 123.456 145.228 123.624C145.019 123.802 143.433 123.718 143.058 123.32C142.724 122.974 141.972 122.723 141.795 122.67C141.785 122.67 141.774 122.66 141.764 122.66H141.753C138.654 121.706 133.792 119.705 132.321 118.731C131.058 117.893 128.241 114.414 126.008 111.323C124.38 109.081 123.055 107.038 122.836 106.357C121.375 101.862 125.549 100.678 126.968 102.114Z" fill="#FFB27D"/>
<path d="M119.226 87.8438C119.403 87.5818 119.58 87.3618 119.758 87.1523C119.539 87.1523 119.299 87.1313 119.1 87.058C118.579 86.8379 118.339 85.1825 118.422 84.6901C118.495 84.1976 119.226 82.7727 120.112 82.6365C120.999 82.4898 121.928 83.4852 121.928 83.4852C121.761 82.7727 120.259 82.3536 120.259 82.3536C123.368 82.9299 123.201 85.0044 123.18 85.2035C126.018 84.1872 127.688 89.562 127.688 89.562L120.332 93.9206C120.332 93.9206 120.311 92.7367 119.612 92.81C118.506 92.9253 117.598 90.2221 119.226 87.8438Z" fill="#2C3A64"/>
<path d="M118.756 99.1174C120.446 99.9136 122.69 98.7611 122.679 98.7507C122.533 98.604 122.585 98.1744 122.721 97.5982C122.857 97.0009 123.17 96.1942 123.744 95.2198C123.869 95.0102 123.984 94.8112 124.13 94.5911L123.931 94.5178L120.655 93.1977C120.655 93.1977 120.123 94.1511 119.57 95.0312C119.1 95.7541 118.61 96.4142 118.391 96.3933C118.37 96.3828 116.2 97.881 118.756 99.1174Z" fill="#FFB27D"/>
<path d="M120.645 93.5329C120.728 94.7064 121.125 96.8228 122.711 97.6086C122.846 97.0114 123.159 96.2046 123.733 95.2303L120.645 93.5329Z" fill="#ED975D"/>
<path d="M123.932 96.5714C123.932 96.5714 119.664 94.8845 120.749 92.2233C121.834 89.5725 122.022 87.5609 124.798 88.5248C127.573 89.4887 127.677 90.725 127.531 91.6994C127.375 92.6738 125.069 96.9381 123.932 96.5714Z" fill="#FFB27D"/>
<path d="M122.335 91.6156C120.363 91.3327 119.789 90.5365 119.789 90.5365C119.789 90.5365 121.605 90.0126 122.669 88.2315C122.669 88.2315 124.881 87.4771 126.53 88.7344C126.634 88.8601 126.697 89.0173 126.738 89.1954C127.114 89.0696 127.677 89.1011 128.011 90.1698C128.502 91.7728 126.759 93.533 126.759 93.533C126.331 93.4177 126.811 91.9823 126.884 91.2175C126.937 90.6517 126.634 89.9393 126.467 89.5935C126.258 89.8659 124.182 92.4957 121.636 92.6005C121.636 92.6005 122.982 92.129 124.203 91.2175C123.587 91.5213 122.94 91.6994 122.335 91.6156Z" fill="#2C3A64"/>
<path d="M110.617 104.597C110.649 104.471 110.69 104.335 110.732 104.199C110.096 102.983 109.783 101.883 109.657 100.951C109.365 98.9916 109.866 97.7762 109.866 97.7762C109.866 97.7762 112.829 96.1942 114.134 95.9951C114.144 95.9951 114.144 95.9951 114.155 95.9951C114.165 95.9951 114.186 95.9951 114.207 95.9951C115.532 95.817 118.391 96.3932 118.391 96.3932C118.391 96.3932 117.838 97.8705 119.393 98.8554C120.947 99.8403 122.606 98.604 122.606 98.604C122.658 98.6354 122.711 98.6773 122.763 98.7192C122.763 98.7192 126.853 101.433 127.229 102.051C127.594 102.669 129.169 105.739 129.169 105.739C129.169 105.739 128.669 108.316 123.138 108.536C122.679 109.647 122.335 110.726 122.22 111.627C121.782 115.127 122.293 117.882 121.782 119.925C121.271 121.968 112.036 120.805 110.367 120.407C108.698 120.009 109.073 118.217 108.948 116.478C108.781 114.278 110.075 106.525 110.617 104.597Z" fill="#699DEE"/>
<path d="M109.657 100.951C109.793 101.883 110.106 102.983 110.743 104.209C110.889 103.57 111.483 101.213 112.433 100.155C112.433 100.155 110.826 100.301 109.657 100.951Z" fill="#4A82D3"/>
<path d="M147.231 123.875C147.231 123.875 145.51 121.78 145.145 121.539C144.779 121.287 143.152 120.858 143.058 120.942C142.964 121.025 142.964 121.151 143.162 121.329C143.36 121.507 144.132 121.958 144.018 122.01C143.903 122.063 141.586 120.9 141.253 121.287C140.919 121.675 141.44 123.288 142.338 124.053C143.235 124.829 145.896 125.153 146.063 125.258C147.492 126.18 147.231 123.875 147.231 123.875Z" fill="#ED975D"/>
<path d="M177.511 119.045C177.511 119.045 175.038 121.989 171.898 120.753C171.898 120.753 171.219 119.108 171.209 117.893C171.209 117.746 171.209 117.599 171.209 117.463C171.188 116.101 171.146 115.336 171.146 115.336C171.292 115.273 175.957 113.356 175.946 113.513C175.863 117.201 177.511 119.045 177.511 119.045Z" fill="#FFB27D"/>
<path d="M175.477 114.393C175.028 115.231 173.484 116.866 171.199 117.463C171.178 116.101 171.136 115.336 171.136 115.336C171.272 115.305 175.612 114.152 175.477 114.393Z" fill="#ED975D"/>
<path d="M170.166 115.2C170.166 115.2 175.414 116.436 176.134 113.146C176.854 109.857 178.012 107.793 174.694 106.871C171.376 105.938 170.447 107.049 169.946 108.096C169.425 109.123 168.82 114.791 170.166 115.2Z" fill="#FFB27D"/>
<path d="M175.946 114.037C176.019 114.079 177.146 114.435 179.285 110.15C179.619 109.479 179.849 108.023 179.066 106.745C178.284 105.467 175.508 104.45 173.202 104.01C170.896 103.57 170.343 104.869 169.801 106.179C169.227 107.552 167.589 108.683 167.589 108.683C169.571 109.794 171.971 108.201 172.795 108.463C173.62 108.725 173.922 110.035 173.985 110.454C174.047 110.873 174.141 111.229 175.185 110.852C176.228 110.475 175.654 112.34 175.487 112.696C175.487 112.706 175.352 113.66 175.946 114.037Z" fill="#A9453D"/>
<path d="M189.459 196.263H192.641C193.309 196.263 194.05 195.582 194.238 194.346C194.425 193.099 195.792 192.428 196.084 191.412C196.377 190.396 194.864 188.96 194.864 188.96L194.613 188.625L194.352 188.279L191.838 188.876C191.838 188.876 191.775 189.484 191.733 190.259C191.702 190.825 191.692 191.464 191.723 192.041C191.796 193.392 191.347 194.859 190.168 195.121C188.979 195.393 189.459 196.263 189.459 196.263Z" fill="#2C3A64"/>
<path d="M167.348 196.295H175.769C175.852 196.274 175.915 196.263 175.946 196.242C176.51 195.949 176.332 193.728 176.27 193.036C176.259 192.91 176.249 192.837 176.249 192.837C176.249 192.837 173.285 190.385 172.878 192.261C172.868 192.324 172.847 192.376 172.837 192.428C172.325 194.178 170.019 194.974 168.694 195.205C167.672 195.383 167.411 195.991 167.348 196.295Z" fill="#2C3A64"/>
<path d="M169.039 147.397C169.039 147.397 169.487 153.034 170.02 159.802C170.74 169.001 171.606 180.306 171.689 182.443C171.835 186.163 172.43 192.103 172.43 192.103C172.43 192.103 173.838 193.518 176.645 192.921C176.645 192.921 179.15 184.434 179.869 175.445C179.88 175.298 179.89 175.151 179.901 175.004C180.569 165.858 181.602 146.611 181.602 146.611L169.039 147.397Z" fill="#EE9849"/>
<path d="M169.039 147.397C169.039 147.397 169.487 153.034 170.02 159.802L179.869 175.455C179.88 175.308 179.89 175.162 179.901 175.015C180.569 165.868 181.602 146.622 181.602 146.622L169.039 147.397Z" fill="#E58638"/>
<path d="M171.094 148.067C171.094 148.067 179.202 168.477 184.534 178.064C189.866 187.651 191.525 190.333 191.525 190.333C191.525 190.333 194.582 189.096 194.864 188.258C194.864 188.258 192.829 169.745 189.261 165.229C187.247 162.683 184.878 155.024 184.763 152.353C184.649 149.681 184.043 144.379 184.043 144.379L171.094 148.067Z" fill="#EE9849"/>
<path d="M189.657 144.662C189.657 144.662 189.866 147.208 190.022 147.606C190.179 147.994 191.201 149.209 191.316 149.188C191.431 149.168 191.504 149.073 191.441 148.832C191.379 148.581 191.024 147.826 191.139 147.837C191.253 147.858 192.422 150.006 192.892 149.88C193.361 149.754 193.82 148.235 193.539 147.156C193.257 146.077 191.379 144.379 191.306 144.212C190.7 142.745 189.657 144.662 189.657 144.662Z" fill="#ED975D"/>
<path d="M190.523 145.312C189.626 145.605 189.48 145.532 189.48 145.532C189.48 145.532 185.108 137.548 184.669 136.815C184.231 136.081 175.393 127.857 175.393 127.857L177.658 119.36C177.658 119.36 187.706 132.414 188.781 134.29C190.575 137.391 191.619 144.578 191.619 144.578C191.619 144.578 191.233 145.081 190.523 145.312Z" fill="#1E3D70"/>
<path d="M167.328 131.199C167.359 132.949 167.463 134.908 167.599 136.899C167.609 137.014 167.62 137.14 167.62 137.255C167.703 138.491 167.797 139.727 167.912 140.932C167.954 141.414 168.006 141.896 168.048 142.368L168.058 142.431C168.058 142.609 168.079 142.797 168.1 142.975C168.538 147.491 169.007 151.064 169.091 151.116C169.195 151.19 169.31 151.221 169.435 151.2C170.614 151.053 174.141 151.315 177.021 150.687C179.452 150.173 181.549 149.199 183.772 147.879C184.064 147.701 184.742 147.24 184.68 146.894C184.628 146.517 184.523 145.961 184.398 145.27C183.96 142.871 183.209 138.732 182.948 133.892C182.896 132.991 182.822 132.1 182.729 131.22C182.478 128.936 182.082 126.778 181.549 124.85C180.558 121.277 179.108 118.542 177.282 117.474C177.042 117.337 175.758 118.155 174.59 118.92C173.505 119.622 172.357 119.81 171.251 119.716L170.27 120.805C169.08 122.188 167.818 124.032 167.474 126.652C167.453 126.84 167.421 127.05 167.411 127.27C167.328 128.339 167.307 129.69 167.328 131.199Z" fill="#2A4E96"/>
<path d="M167.328 131.199C167.359 132.949 167.463 134.908 167.599 136.898C167.609 137.014 167.62 137.139 167.62 137.255C174.36 133.022 175.404 125.269 175.404 125.269C172.086 125.415 169.456 126.18 167.422 127.27C167.328 128.339 167.307 129.69 167.328 131.199Z" fill="#1E3D70"/>
<path d="M146.208 124.085C146.553 123.142 147.095 123.205 147.095 123.205C147.095 123.205 157.123 125.709 158.02 125.824C158.917 125.929 168.809 121.947 168.809 121.947C168.809 121.947 172.701 120.198 174.527 121.79C176.113 123.184 176.186 124.944 175.81 126.432C175.372 128.192 173.88 129.502 172.085 129.732C168.047 130.245 159.992 131.22 158.312 130.979C154.556 130.455 146.041 125.52 146.041 125.52C146.041 125.52 145.937 124.829 146.208 124.085Z" fill="#2A4E96"/>
<path d="M47.3856 142.535C47.3856 142.535 45.9978 143.834 46.2691 144.756C46.5404 145.679 47.7925 146.286 47.9699 147.418C48.1473 148.549 48.8151 149.157 49.4307 149.157C50.0464 149.157 52.3419 149.157 52.3419 149.157C52.3419 149.157 52.7906 148.361 51.7054 148.13C50.6203 147.889 50.2133 146.569 50.2759 145.343C50.349 144.117 50.1716 142.483 50.1716 142.483L47.8656 141.938L47.3856 142.535Z" fill="#2C3A64"/>
<path d="M64.7378 148.989C64.8839 149.063 65.3743 149.105 66.0525 149.147H72.647C72.6261 148.947 72.4696 148.246 71.3949 148.078C70.174 147.879 68.0663 147.166 67.5968 145.605C67.5759 145.553 67.5655 145.5 67.5551 145.448C67.1794 143.782 64.4665 145.961 64.4665 145.961C64.4665 145.961 64.4561 146.024 64.4456 146.14C64.383 146.758 64.2265 148.738 64.7378 148.989Z" fill="#2C3A64"/>
<path d="M71.0713 104.304C71.0713 104.304 70.6539 109.469 70.1739 115.682C69.5166 124.127 68.7236 134.489 68.6401 136.458C68.5045 139.874 67.9619 145.322 67.9619 145.322C67.9619 145.322 66.668 146.621 64.0908 146.077C64.0908 146.077 61.7953 138.292 61.1379 130.046C61.1275 129.91 61.117 129.774 61.1066 129.638C60.491 121.245 59.5415 103.581 59.5415 103.581L71.0713 104.304Z" fill="#35488B"/>
<path d="M71.0713 104.304C71.0713 104.304 70.6539 109.469 70.1739 115.682L61.1379 130.046C61.1275 129.91 61.117 129.774 61.1066 129.638C60.491 121.245 59.5415 103.581 59.5415 103.581L71.0713 104.304Z" fill="#2C3A64"/>
<path d="M69.1931 104.911C69.1931 104.911 61.7534 123.634 56.8702 132.435C51.9765 141.236 50.453 143.688 50.453 143.688C50.453 143.688 47.6462 142.567 47.3958 141.791C47.3958 141.791 49.2635 124.808 52.5399 120.669C54.3868 118.333 56.5676 111.313 56.6615 108.851C56.7658 106.399 57.3188 101.538 57.3188 101.538L69.1931 104.911Z" fill="#35488B"/>
<path d="M92.1279 94.7589C92.1279 94.7589 94.1417 94.2979 94.486 94.3188C94.8303 94.3398 96.0094 94.8427 96.0303 94.937C96.0512 95.0313 95.9886 95.1151 95.7799 95.1256C95.5712 95.1361 94.9034 95.0522 94.9451 95.1361C94.9869 95.2199 96.9381 95.5971 96.9589 95.9952C96.9798 96.3933 95.9155 97.1163 95.0182 97.1687C94.1208 97.221 92.347 96.1628 92.1905 96.1524C90.8966 96.0371 92.1279 94.7589 92.1279 94.7589Z" fill="#FFB27D"/>
<path d="M92.9937 95.2722C93.2859 94.3502 93.2128 94.2035 93.2128 94.2035C93.2128 94.2035 85.0324 89.7612 84.2915 89.3106C83.5403 88.8601 75.0885 79.8287 75.0885 79.8287L66.4281 82.2175C66.4281 82.2175 79.8257 92.4643 81.7456 93.5644C84.9176 95.3875 92.2633 96.4247 92.2633 96.4247C92.2633 96.4247 92.7642 96.0056 92.9937 95.2722Z" fill="#E58638"/>
<path d="M72.4698 75.4386C72.4698 75.4386 75.5062 80.803 78.4695 81.505C78.4695 81.505 78.3443 79.7029 77.6243 78.4771C77.9165 78.1313 78.1774 77.8065 78.4069 77.5131C79.1582 76.5492 79.5129 75.9625 79.5129 75.9625L78.5113 73.2489L77.833 71.4049C77.5096 72.0021 77.1444 72.5155 76.7687 72.945C74.8071 75.1872 72.4698 75.4386 72.4698 75.4386Z" fill="#FFB27D"/>
<path d="M76.7478 72.945C76.7478 72.945 76.3826 75.6272 78.4069 77.5131C79.1582 76.5492 79.5129 75.9625 79.5129 75.9625L78.5112 73.2489C77.4156 72.9136 76.7478 72.945 76.7478 72.945Z" fill="#ED975D"/>
<path d="M80.3057 76.3606C80.3057 76.3606 75.7667 74.5899 76.9145 71.7716C78.0623 68.9532 78.2397 66.8263 81.1927 67.8426C84.1352 68.8589 84.2604 70.158 84.1039 71.1953C83.9473 72.2221 81.5161 76.7483 80.3057 76.3606Z" fill="#FFB27D"/>
<path d="M56.8808 102.952C58.7068 105.592 72.3862 109.123 72.2192 107.29C72.1566 106.588 72.0731 105.362 72.2192 103.685C72.2505 103.298 72.3027 102.879 72.3653 102.439C72.7096 100.039 73.5339 96.9486 75.3808 93.3758C75.5164 93.1034 75.6625 92.8415 75.8086 92.5691C76.5703 91.1861 77.2172 89.7192 77.7076 88.2943C78.6572 85.5493 79.0328 82.9195 78.5633 81.1907C78.5633 81.1802 78.5633 81.1697 78.5528 81.1697C75.6938 79.8391 74.5878 74.6948 74.5878 74.6948C74.5878 74.6948 64.8317 76.455 59.3746 89.5097C59.3746 89.4992 55.2844 100.658 56.8808 102.952Z" fill="#EE9849"/>
<path d="M72.2298 103.686C72.2611 103.298 72.3133 102.879 72.3759 102.439C72.7202 100.039 73.5445 96.9486 75.3914 93.3759C75.0783 91.448 74.6401 89.8555 74.1601 89.1326C72.2194 86.2094 71.0821 85.7484 71.0821 85.7484C71.0821 85.7484 68.1605 98.1011 72.2298 103.686Z" fill="#E58638"/>
<path d="M87.5993 100.752C87.5993 100.752 90.3018 100.898 90.7192 101.045C91.1366 101.192 92.4513 102.25 92.4409 102.376C92.4304 102.502 92.3261 102.585 92.0652 102.522C91.8044 102.47 90.9905 102.114 91.0113 102.229C91.0322 102.344 93.3382 103.528 93.2339 104.031C93.1191 104.534 91.5226 105.068 90.3748 104.807C89.2271 104.545 87.3802 102.585 87.1923 102.522C85.5959 101.915 87.5993 100.752 87.5993 100.752Z" fill="#FFB27D"/>
<path d="M88.1106 101.779C88.6532 100.898 88.2567 100.5 88.2567 100.5C88.2567 100.5 79.9197 93.952 79.2728 93.2815C78.6154 92.6214 75.5895 82.0812 75.5895 82.0812C75.5895 82.0812 74.5461 77.817 72.1045 77.3455C69.9863 76.9369 68.5151 77.9846 67.5656 79.2209C66.4282 80.6878 66.3134 82.7204 67.263 84.3234C69.3916 87.9276 73.68 95.0731 74.9321 96.2885C77.7181 99.0021 87.0568 102.805 87.0568 102.805C87.0568 102.805 87.6828 102.47 88.1106 101.779Z" fill="#EE9849"/>
<path d="M76.2574 66.5329C76.2261 66.4701 76.1321 66.4072 75.913 66.3339C75.913 66.3339 76.1217 66.2605 76.3721 66.3129C76.4973 65.9986 76.8104 65.4747 77.3843 65.4642C77.3843 65.4642 77.0504 65.5481 76.9251 65.8833C77.7182 65.3804 79.1998 65.2337 82.8727 66.4596C87.7352 68.0836 85.304 70.9124 84.5735 71.1429C83.8431 71.3734 82.4867 69.9171 81.2659 69.718C80.045 69.519 79.3877 71.2268 78.9286 71.363C78.4694 71.4992 78.7303 71.122 78.2399 70.7238C77.7495 70.3362 77.4782 71.2477 77.4886 71.8868C77.499 72.5259 76.5495 73.1336 76.5495 73.1336C76.5495 73.1336 76.5495 73.1336 75.9965 72.1068C75.4435 71.0801 75.5895 67.3711 76.1217 66.7006C76.1634 66.6482 76.2156 66.5853 76.2574 66.5329Z" fill="#2B478B"/>
<path d="M152.928 196.158V201.669L165.919 196.158H152.928Z" fill="#4271BC"/>
<path d="M41.7304 149.147H84.6987V205.818H41.7304V149.147Z" fill="#4A75CB"/>
<path d="M54.9818 149.147H97.9502V205.818H54.9818V149.147Z" fill="#699DEE"/>
<path d="M41.7303 149.147V157.623L54.9819 149.147H41.7303Z" fill="#4271BC"/>
</g>
<defs>
<clipPath id="clip0">
<rect width="258.092" height="141.297" fill="white" transform="matrix(-1 0 0 1 264.356 65.4642)"/>
</clipPath>
</defs>
</svg>
