<svg width="114" height="139" viewBox="0 0 114 139" fill="none" xmlns="http://www.w3.org/2000/svg">
<path d="M27.7622 102.307C27.7622 102.575 27.7965 102.776 27.5266 102.776L20.5357 102.774C20.268 102.774 20.2337 102.673 20.2337 102.506L19.9317 93.77C19.9317 93.77 16.2007 96.8606 14.7892 97.9701C14.6543 98.105 14.5536 98.1371 14.4873 98.1371C14.4209 98.1371 14.3523 98.1027 14.1853 97.9701C12.6732 96.7599 9.48198 93.77 9.48198 93.77L9.24407 102.271C9.24407 102.708 9.17773 102.742 8.80713 102.742H2.65806C2.32178 102.742 2.32178 102.676 2.32178 102.305C2.39041 95.6184 2.72897 86.6785 3.09956 79.9254C3.09956 79.6898 3.13388 79.6235 3.20022 79.5892C3.26656 79.5228 3.36721 79.5549 3.57081 79.6898C7.33392 82.4464 13.1467 87.3533 14.7252 88.7647C16.3722 87.3533 22.3886 82.3137 26.2524 79.5251C26.4194 79.3901 26.5544 79.3238 26.623 79.3581C26.6916 79.3924 26.7236 79.4588 26.7236 79.6944C27.2612 88.4971 27.4946 94.2092 27.7622 102.307Z" fill="white"/>
<path d="M40.0261 102.444C40.0261 102.714 39.9918 102.746 39.6898 102.746L32.2643 102.744C31.928 102.744 31.928 102.778 31.928 102.442L31.9326 80.2633C31.9326 79.927 31.9326 79.9613 32.2688 79.9613L39.6944 79.9636C39.9964 79.9636 40.0307 79.9979 40.0307 80.2656L40.0261 102.444Z" fill="white"/>
<path d="M66.2719 91.3581C66.2696 99.0536 62.2708 102.748 54.0721 102.748L45.0658 102.746C44.7638 102.746 44.7295 102.78 44.7295 102.444L44.7341 80.2998C44.7341 80.0298 44.7684 79.9635 45.0703 79.9635L54.9162 79.9658C62.6437 79.9658 66.2719 83.9668 66.2719 91.3581ZM58.2058 91.2574C58.2058 87.5949 56.3917 86.2842 54.0057 86.2842H52.393L52.3907 96.432H53.9371C56.1881 96.432 58.2058 95.1875 58.2058 91.2574Z" fill="white"/>
<path d="M92.2108 102.284C92.4784 102.755 92.4464 102.755 92.0758 102.755L84.179 102.753C84.012 102.753 83.8427 102.718 83.7078 102.485C83.3052 101.577 82.9689 100.772 82.5663 99.9298L74.7358 99.9275C74.2989 100.868 74.0632 101.575 73.6606 102.38C73.4936 102.682 73.4593 102.75 72.9881 102.748L66.1001 102.746C65.8302 102.746 65.7638 102.611 65.9651 102.275C70.0325 94.9497 74.5711 86.2133 78.0986 79.6616C78.1672 79.5267 78.5355 79.4946 78.9061 79.4946C79.3087 79.4946 79.7136 79.4946 79.78 79.6296C83.678 86.7578 88.0794 94.8902 92.2108 102.284ZM80.7202 94.9565C80.7202 94.9565 79.8806 92.9412 79.2424 91.5274C78.9404 90.8228 78.7048 90.1823 78.7048 90.1823C78.7048 90.1823 78.4692 90.8206 78.1672 91.5274C77.561 92.9732 76.6551 94.9543 76.6551 94.9543L80.7202 94.9565Z" fill="white"/>
<path d="M111.902 94.8604C111.902 100.472 107.432 103.562 101.853 103.562C97.2824 103.562 94.1575 101.579 92.849 98.4199C92.6477 97.8823 92.682 97.8823 92.984 97.7817L97.9915 95.9013C98.2935 95.8006 98.3278 95.8006 98.3942 96.0362C98.7625 97.2784 100.108 98.2552 101.588 98.2552C103.166 98.2552 103.939 97.5506 103.939 96.5418C103.939 95.4323 102.999 95.0297 101.016 94.7941C100.78 94.7598 100.41 94.7277 100.176 94.6934C97.6232 94.4921 93.1876 93.314 93.1876 87.8718C93.1876 82.6309 96.5824 79.2704 102.967 79.2704C107.67 79.2704 110.528 81.2881 111.132 84.2116C111.232 84.6142 111.232 84.6485 110.896 84.7835L106.158 86.529C105.891 86.6639 105.856 86.6639 105.756 86.394C105.218 85.1518 104.344 84.4793 102.697 84.4793C101.119 84.4793 100.512 85.1518 100.512 86.0577C100.512 87.0665 101.386 87.4028 103.873 87.7734C104.209 87.8398 104.612 87.8741 105.083 87.9427C108.844 88.51 111.902 90.1228 111.902 94.8604Z" fill="white"/>
<path d="M10.3008 112.901C10.2847 113.058 10.3008 113.074 10.1612 113.074L5.48078 113.04V115.426L9.63507 115.371C9.79291 115.371 9.86154 115.442 9.86154 115.584C9.89585 116.318 9.91415 117.11 9.86154 117.949C9.84552 118.109 9.77461 118.144 9.61676 118.144L5.48078 118.109V121.982C5.48078 122.174 5.46248 122.227 5.32293 122.227H2.46572C2.36049 122.227 2.32617 122.245 2.32617 121.982V110.569C2.32617 110.359 2.34219 110.341 2.46572 110.341H10.1612C10.3008 110.341 10.2825 110.377 10.3008 110.517C10.3557 111.267 10.3717 112.214 10.3008 112.901Z" fill="white"/>
<path d="M17.4018 122.067C17.4018 122.209 17.3858 122.225 17.2279 122.225H14.3158C14.158 122.225 14.158 122.243 14.158 122.067V110.499C14.158 110.322 14.158 110.338 14.3158 110.338H17.2256C17.3835 110.338 17.3995 110.357 17.3995 110.499V122.067H17.4018Z" fill="white"/>
<path d="M32.2664 122.312C32.2664 122.433 32.2664 122.522 32.2138 122.538C32.1794 122.556 32.1268 122.538 32.0559 122.486C29.4092 120.507 25.2732 116.702 25.2732 116.702V122.067C25.2732 122.225 25.2732 122.225 25.1153 122.225H22.4686C22.345 122.225 22.2924 122.12 22.2924 122.049C22.2055 117.579 22.2238 114.792 22.2924 110.167C22.2924 110.078 22.3107 110.043 22.345 110.025C22.3794 109.991 22.432 110.009 22.4846 110.043C24.9918 111.83 29.2856 115.808 29.2856 115.808V110.551C29.2856 110.357 29.2856 110.338 29.4252 110.338H32.0879C32.2641 110.338 32.2641 110.375 32.2641 110.551C32.335 113.969 32.319 118.665 32.2664 122.312Z" fill="white"/>
<path d="M48.1652 121.98C48.2705 122.209 48.2522 122.225 48.0966 122.225H44.8185C44.7315 122.225 44.6606 122.209 44.608 122.085C44.3976 121.61 44.1345 120.962 43.9606 120.525H39.7194C39.5089 121.017 39.2802 121.612 39.1063 122.035C39.0537 122.175 39.0194 122.227 38.7906 122.227H35.8808C35.7413 122.227 35.7047 122.159 35.7939 121.982C37.5988 118.109 40.3874 112.516 41.7531 109.956C41.7714 109.922 41.8583 109.922 41.9635 109.922C42.0688 109.922 42.1557 109.904 42.174 109.956C43.7662 113.072 46.2368 118.107 48.1652 121.98ZM43.0296 118.244L41.7851 115.582L40.5933 118.244H43.0296Z" fill="white"/>
<path d="M61.7332 122.312C61.7332 122.433 61.7332 122.522 61.6806 122.538C61.6462 122.556 61.5936 122.538 61.5227 122.486C58.876 120.507 54.74 116.702 54.74 116.702V122.067C54.74 122.225 54.74 122.225 54.5821 122.225H51.9354C51.8118 122.225 51.7592 122.12 51.7592 122.049C51.6723 117.579 51.6906 114.792 51.7592 110.167C51.7592 110.078 51.7775 110.043 51.8118 110.025C51.8461 109.991 51.8988 110.009 51.9514 110.043C54.4586 111.83 58.7524 115.808 58.7524 115.808V110.551C58.7524 110.357 58.7524 110.338 58.892 110.338H61.5547C61.7309 110.338 61.7309 110.375 61.7309 110.551C61.8018 113.969 61.7858 118.665 61.7332 122.312Z" fill="white"/>
<path d="M77.7004 118.894C76.9112 120.804 74.9484 122.522 72.2147 122.522C68.4813 122.522 65.9924 119.699 65.9924 116.334C65.9924 112.743 68.6918 110.094 72.1278 110.094C75.0193 110.094 76.7899 111.651 77.5791 113.443C77.6661 113.653 77.5952 113.724 77.5265 113.758L74.9141 114.774C74.8089 114.811 74.7928 114.774 74.7562 114.687C74.2484 113.635 73.4066 113.093 72.1987 113.093C70.4464 113.093 69.3232 114.479 69.3232 116.355C69.3232 118.546 70.7781 119.544 72.2513 119.544C73.4432 119.544 74.285 118.967 74.7059 118.071C74.7585 117.984 74.7745 117.913 74.9164 117.947L77.5448 118.665C77.7187 118.718 77.737 118.789 77.7004 118.894Z" fill="white"/>
<path d="M84.7142 122.067C84.7142 122.209 84.6982 122.225 84.5403 122.225H81.6305C81.4727 122.225 81.4727 122.243 81.4727 122.067V110.499C81.4727 110.322 81.4727 110.338 81.6305 110.338H84.5403C84.6982 110.338 84.7142 110.357 84.7142 110.499V122.067Z" fill="white"/>
<path d="M100.613 121.98C100.718 122.209 100.7 122.225 100.544 122.225H97.2662C97.1793 122.225 97.1084 122.209 97.0558 122.085C96.8453 121.61 96.5822 120.962 96.4084 120.525H92.1672C91.9567 121.017 91.7279 121.612 91.5541 122.035C91.5015 122.175 91.4672 122.227 91.2384 122.227H88.3286C88.189 122.227 88.1524 122.159 88.2416 121.982C90.0466 118.109 92.8351 112.516 94.2008 109.956C94.2191 109.922 94.3061 109.922 94.4113 109.922C94.5165 109.922 94.6035 109.904 94.6218 109.956C96.2139 113.072 98.6845 118.107 100.613 121.98ZM95.4773 118.244L94.2329 115.582L93.041 118.244H95.4773Z" fill="white"/>
<path d="M111.902 122.067C111.902 122.209 111.902 122.225 111.763 122.225H104.349C104.191 122.225 104.191 122.243 104.191 122.067V110.499C104.191 110.322 104.191 110.338 104.349 110.338H107.188C107.327 110.338 107.346 110.357 107.346 110.499V119.436L111.745 119.349C111.884 119.349 111.902 119.384 111.902 119.525V122.067Z" fill="white"/>
<path d="M12.5335 135.454C11.8449 137.119 10.1338 138.616 7.75008 138.616C4.49711 138.616 2.32617 136.156 2.32617 133.224C2.32617 130.09 4.68012 127.784 7.67459 127.784C10.1955 127.784 11.7397 129.145 12.4259 130.7C12.5037 130.883 12.442 130.945 12.3802 130.975L10.104 131.86C10.0125 131.892 9.99651 131.86 9.96677 131.785C9.52297 130.87 8.79094 130.394 7.73635 130.394C6.20824 130.394 5.23143 131.602 5.23143 133.235C5.23143 135.145 6.49876 136.017 7.78211 136.017C8.82068 136.017 9.555 135.511 9.92102 134.733C9.96677 134.656 9.98278 134.596 10.104 134.626L12.3962 135.253C12.5495 135.301 12.5655 135.363 12.5335 135.454Z" fill="white"/>
<path d="M22.5419 138.217C22.5419 138.341 22.5419 138.355 22.4183 138.355H15.9559C15.8186 138.355 15.8186 138.371 15.8186 138.217V128.134C15.8186 127.983 15.8186 127.996 15.9559 127.996H18.431C18.5523 127.996 18.5683 128.012 18.5683 128.134V135.928L22.4023 135.852C22.5259 135.852 22.5396 135.882 22.5396 136.003V138.217H22.5419Z" fill="white"/>
<path d="M35.668 138.142C35.7595 138.341 35.7457 138.355 35.6062 138.355H32.749C32.6735 138.355 32.6117 138.341 32.566 138.233C32.383 137.819 32.1519 137.257 32.0009 136.875H28.3019C28.1189 137.302 27.9199 137.819 27.7666 138.188C27.7208 138.309 27.6911 138.355 27.4921 138.355H24.9551C24.8316 138.355 24.8019 138.295 24.8773 138.142C26.4512 134.765 28.8806 129.891 30.0725 127.66C30.0885 127.63 30.164 127.63 30.2555 127.63C30.347 127.63 30.4248 127.614 30.4385 127.66C31.8339 130.38 33.9866 134.765 35.668 138.142ZM31.1911 134.887L30.1068 132.565L29.0682 134.887H31.1911Z" fill="white"/>
<path d="M46.3331 135.225C46.3331 137.579 44.3932 138.616 41.9935 138.616C39.9141 138.616 38.617 137.776 38.0977 136.278C38.036 136.111 38.052 136.035 38.1595 135.989L40.0376 135.225C40.1749 135.164 40.1749 135.18 40.2046 135.301C40.3876 135.866 41.0922 136.538 42.053 136.538C43.1076 136.538 43.5971 136.218 43.5971 135.514C43.5971 134.887 43.1533 134.489 41.7488 134.322C41.6412 134.306 41.4903 134.292 41.3804 134.276C39.5321 134.093 38.2487 133.054 38.2487 131.158C38.2487 129.172 39.6098 127.781 42.3138 127.781C44.3475 127.781 45.6011 128.742 45.9968 130.028C46.0426 130.195 45.9808 130.254 45.8893 130.286L44.1004 131.005C43.9929 131.05 43.9471 131.018 43.9174 130.943C43.7047 130.332 43.0024 129.735 42.2063 129.735C41.1357 129.735 40.8017 130.133 40.8017 130.696C40.8017 131.4 41.3667 131.691 42.7416 131.92C42.8788 131.936 43.0481 131.966 43.2471 131.995C45.203 132.274 46.3331 133.315 46.3331 135.225Z" fill="white"/>
<path d="M57.5946 135.225C57.5946 137.579 55.6547 138.616 53.255 138.616C51.1756 138.616 49.8785 137.776 49.3592 136.278C49.2974 136.111 49.3135 136.035 49.421 135.989L51.3014 135.225C51.4386 135.164 51.4386 135.18 51.4684 135.301C51.6514 135.866 52.3537 136.538 53.3168 136.538C54.3713 136.538 54.8609 136.218 54.8609 135.514C54.8609 134.887 54.4171 134.489 53.0125 134.322C52.905 134.306 52.754 134.292 52.6442 134.276C50.7958 134.093 49.5125 133.054 49.5125 131.158C49.5125 129.172 50.8736 127.781 53.5776 127.781C55.6089 127.781 56.8626 128.742 57.2606 130.028C57.3063 130.195 57.2446 130.254 57.1531 130.286L55.3642 131.005C55.2567 131.05 55.2109 131.018 55.1812 130.943C54.9684 130.332 54.2661 129.735 53.47 129.735C52.3994 129.735 52.0654 130.133 52.0654 130.696C52.0654 131.4 52.6305 131.691 54.0053 131.92C54.1426 131.936 54.3096 131.966 54.5109 131.995C56.4645 132.274 57.5946 133.315 57.5946 135.225Z" fill="white"/>
<path d="M70.4146 137.945C70.5976 138.249 70.5519 138.357 70.3826 138.357H67.6786C67.5551 138.357 67.4956 138.327 67.3584 138.053C66.8391 137.058 65.7227 135.303 65.7227 135.303L63.9659 135.333V138.22C63.9659 138.343 63.9498 138.357 63.8423 138.357H61.3374C61.2139 138.357 61.2139 138.373 61.2139 138.22V128.136C61.2139 127.985 61.2916 127.999 61.3374 127.999H66.075C68.429 127.999 69.6826 129.618 69.6826 131.499C69.6826 132.903 69.193 133.898 68.2597 134.34C68.6577 134.964 69.527 136.509 70.4146 137.945ZM66.7773 131.693C66.7773 130.883 66.3655 130.273 65.4802 130.273H63.9681V133.269L65.4963 133.224C66.3198 133.189 66.7773 132.581 66.7773 131.693Z" fill="white"/>
<path d="M83.8449 133.205C83.8449 136.202 81.507 138.613 78.421 138.613C75.335 138.613 72.9971 136.2 72.9971 133.205C72.9971 130.211 75.335 127.781 78.421 127.781C81.507 127.781 83.8449 130.211 83.8449 133.205ZM80.9877 133.205C80.9877 131.634 80.0406 130.394 78.421 130.394C76.7716 130.394 75.8543 131.634 75.8543 133.205C75.8543 134.779 76.7716 136.001 78.421 136.001C80.0406 136.003 80.9877 134.782 80.9877 133.205Z" fill="white"/>
<path d="M97.8703 133.205C97.8703 136.202 95.5324 138.613 92.4464 138.613C89.3604 138.613 87.0225 136.2 87.0225 133.205C87.0225 130.211 89.3604 127.781 92.4464 127.781C95.5346 127.781 97.8703 130.211 97.8703 133.205ZM95.0131 133.205C95.0131 131.634 94.066 130.394 92.4464 130.394C90.797 130.394 89.8797 131.634 89.8797 133.205C89.8797 134.779 90.797 136.001 92.4464 136.001C94.066 136.003 95.0131 134.782 95.0131 133.205Z" fill="white"/>
<path d="M111.896 138.158C111.896 138.279 111.941 138.371 111.788 138.371H109.297C109.189 138.371 109.176 138.325 109.176 138.249L109.084 133.802C109.084 133.802 107.373 135.575 106.76 136.186C106.714 136.232 106.668 136.262 106.639 136.262C106.607 136.262 106.577 136.232 106.531 136.186C105.936 135.575 104.161 133.786 104.161 133.786L104.054 138.142C104.054 138.341 104.038 138.355 103.887 138.355H101.595C101.457 138.355 101.457 138.4 101.457 138.263C101.489 134.994 101.624 131.037 101.762 127.98C101.778 127.873 101.807 127.827 101.853 127.811C101.899 127.811 101.931 127.827 101.977 127.873C103.306 129.188 105.95 131.846 106.636 132.624C107.277 131.86 109.83 129.188 111.267 127.797C111.312 127.752 111.374 127.736 111.42 127.752C111.45 127.765 111.482 127.811 111.482 127.873C111.697 131.86 111.79 134.475 111.896 138.158Z" fill="white"/>
<path d="M56.5613 14.3418C59.0449 14.3418 61.0582 12.2793 61.0582 9.73521C61.0582 7.19108 59.0449 5.12866 56.5613 5.12866C54.0778 5.12866 52.0645 7.19108 52.0645 9.73521C52.0645 12.2793 54.0778 14.3418 56.5613 14.3418Z" fill="#DCBA44"/>
<path d="M40.4384 40.3155L35.4748 49.5172L27.7054 65.2332H6.43774L29.8997 19.6064L40.4384 40.3155Z" fill="#F4DE79"/>
<path d="M107.562 65.2332H86.2649L78.5213 49.5859L73.342 40.654L84.0675 19.6064L107.562 65.2332Z" fill="#F4DE79"/>
<path d="M35.3929 9.40504C35.3929 12.3744 32.9868 14.7805 30.0197 14.7805C27.0504 14.7805 24.6443 12.3744 24.6443 9.40504C24.6443 6.43796 27.0504 4.03186 30.0197 4.03186C32.9868 4.03186 35.3929 6.43796 35.3929 9.40504Z" fill="#DCBA44"/>
<path d="M89.5749 9.40504C89.5749 12.3744 87.1197 14.7805 84.0921 14.7805C81.0621 14.7805 78.6069 12.3744 78.6069 9.40504C78.6069 6.43796 81.0621 4.03186 84.0921 4.03186C87.1197 4.03186 89.5749 6.43796 89.5749 9.40504Z" fill="#DCBA44"/>
<path d="M68.5162 40.857L56.9958 63.4783L45.2642 40.4426L49.8136 32.016L56.5757 19.1677L63.393 32.0206L68.5162 40.857Z" fill="#F6D80A"/>
<path d="M87.6378 16.8867C90.4538 15.537 92.4029 12.6589 92.4029 9.3294C92.4029 4.71663 88.6558 0.960876 84.0485 0.960876C79.4413 0.960876 75.6942 4.71663 75.6942 9.3294C75.6942 12.7025 77.6959 15.615 80.5714 16.9371L70.8285 36.1467L67.198 29.8589L59.9829 16.197C62.3346 14.9458 63.9428 12.4687 63.9428 9.62042C63.9428 5.51865 60.6097 2.17995 56.5149 2.17995C52.4201 2.17995 49.0871 5.51865 49.0871 9.62042C49.0871 12.51 50.7433 15.0192 53.1499 16.2497L46.0057 29.8818L42.9106 35.6357L33.4353 16.9532C36.3291 15.6379 38.3491 12.7162 38.3491 9.3294C38.3491 4.71663 34.602 0.960876 29.9947 0.960876C25.3875 0.960876 21.6404 4.71663 21.6404 9.3294C21.6404 12.6452 23.5734 15.5141 26.3689 16.8707L0.953613 66.4471L2.88664 69.6185H29.0362L30.9853 68.4063L39.2893 51.5501L42.7985 45.0239L54.6688 68.4292C55.1172 69.3068 56.0757 69.756 56.9999 69.5841C57.1303 69.607 57.2607 69.6185 57.3911 69.6185C58.1826 69.6185 58.9467 69.1831 59.331 68.4292L71.0778 45.2668L74.7243 51.5799L83.0145 68.4063L84.9636 69.6185H111.113L113.046 66.4471L87.6378 16.8867ZM24.5365 9.3294C24.5365 6.3115 26.9797 3.86419 29.9947 3.86419C33.0075 3.86419 35.4507 6.3115 35.4507 9.3294C35.4507 12.3496 33.0075 14.7969 29.9947 14.7969C26.9797 14.7969 24.5365 12.3496 24.5365 9.3294ZM35.4461 49.5198L27.6866 65.2647H6.44615L29.8781 19.554L40.4033 40.3012L35.4461 49.5198ZM51.9855 9.62042C51.9855 7.11353 54.0146 5.08327 56.5149 5.08327C59.0176 5.08327 61.0444 7.11353 61.0444 9.62042C61.0444 12.1273 59.0176 14.1576 56.5149 14.1576C54.0146 14.1576 51.9855 12.1273 51.9855 9.62042ZM56.9999 63.4108L45.308 40.3585L49.842 31.9258L56.5813 19.0682L63.3755 31.9304L68.4814 40.7732L56.9999 63.4108ZM78.5903 9.3294C78.5903 6.3115 81.0335 3.86419 84.0485 3.86419C87.0613 3.86419 89.5045 6.3115 89.5045 9.3294C89.5045 12.3496 87.0613 14.7969 84.0485 14.7969C81.0335 14.7969 78.5903 12.3496 78.5903 9.3294ZM86.3133 65.2647L78.5903 49.5886L73.4249 40.6403L84.1217 19.554L107.554 65.2647H86.3133Z" fill="#6E6F72"/>
</svg>
