<svg width="109" height="67" viewBox="0 0 109 67" fill="none" xmlns="http://www.w3.org/2000/svg">
<path d="M53.8615 11.3913C56.7692 11.3913 59.1263 9.02335 59.1263 6.10247C59.1263 3.18154 56.7692 0.81366 53.8615 0.81366C50.954 0.81366 48.5969 3.18154 48.5969 6.10247C48.5969 9.02335 50.954 11.3913 53.8615 11.3913Z" fill="#FFE141"/>
<path d="M36.4478 39.6147L31.1269 49.6245L22.7983 66.7206H0L25.1506 17.087L36.4478 39.6147Z" fill="#FFE141"/>
<path d="M108.533 66.7206H85.8499L77.6022 49.6992L72.0857 39.9829L83.5094 17.087L108.533 66.7206Z" fill="#FFE141"/>
<path d="M30.778 5.69445C30.778 8.84136 28.2397 11.3913 25.1095 11.3913C21.977 11.3913 19.4387 8.84136 19.4387 5.69445C19.4387 2.54997 21.977 0 25.1095 0C28.2397 0 30.778 2.54997 30.778 5.69445Z" fill="#FFE141"/>
<path d="M89.0947 5.69445C89.0947 8.84136 86.5564 11.3913 83.4263 11.3913C80.2937 11.3913 77.7554 8.84136 77.7554 5.69445C77.7554 2.54997 80.2937 0 83.4263 0C86.5564 0 89.0947 2.54997 89.0947 5.69445Z" fill="#FFE141"/>
<path d="M66.4158 39.7716L53.9756 64.2796L41.3074 39.3226L46.22 30.1932L53.522 16.2733L60.8836 30.1982L66.4158 39.7716Z" fill="#FFE141"/>
</svg>
