<svg width="271" height="271" viewBox="0 0 271 271" fill="none" xmlns="http://www.w3.org/2000/svg">
<rect y="0.732117" width="270.065" height="270.065" rx="135.033" fill="white"/>
<g clip-path="url(#clip0)">
<path d="M55.2586 150.261C53.3761 149.874 52.9071 151.087 51.0038 150.69L51.4502 153.621C51.1939 154.191 50.6234 155.714 50.6234 155.714C48.5041 161.848 48.6201 161.188 48.8313 161.302C49.0424 161.416 50.6347 159.146 50.8152 159.358C50.9957 159.569 49.903 163.22 50.2286 163.123C50.5541 163.027 51.9724 159.779 52.1561 159.901C52.3398 160.023 51.2342 163.53 51.7129 163.653C52.1916 163.775 53.273 159.893 53.6131 160.145C53.9531 160.398 52.7444 164.347 53.1989 164.389C53.5808 164.424 55.041 160.039 55.4971 158.642C55.5551 158.462 55.792 158.42 55.9113 158.568C57.7373 160.847 58.0129 160.916 58.2176 160.659C58.3626 160.476 57.423 157.996 56.6752 155.626L55.6824 152.736L55.2586 150.261Z" fill="#FFC0BB"/>
<path d="M82.7662 95.2986C82.9612 98.4723 83.0837 101.651 83.1546 104.829C83.1981 106.418 83.2094 108.008 83.2304 109.598C83.2368 111.188 83.2384 112.778 83.2255 114.368C83.2191 115.163 83.2094 115.959 83.1917 116.754C83.174 117.549 83.1659 118.344 83.1417 119.139C83.0853 120.729 83.0434 122.317 82.9483 123.906C82.7791 127.081 82.5374 130.258 82.0764 133.406L82.157 132.216L82.2473 131.027C82.2956 130.234 82.3278 129.441 82.3697 128.649L82.402 128.054L82.4245 127.459L82.4681 126.268L82.5148 125.078L82.5454 123.888C82.6373 120.714 82.684 117.539 82.7082 114.362C82.7436 111.187 82.7469 108.01 82.7517 104.833L82.7662 95.2986Z" fill="#81CAEF"/>
<path d="M90.9471 176.133C90.9471 176.133 91.3371 177.887 90.9471 180.127C90.557 182.368 80.4116 235.66 80.4116 235.66L85.7672 236.439C85.7672 236.439 103.241 186.947 104.216 183.634C105.191 180.322 106.264 175.645 102.947 172.04C99.6291 168.436 90.9471 176.133 90.9471 176.133Z" fill="#FFC0BB"/>
<path d="M71.6073 58.1612C71.6073 58.1612 68.2615 55.9736 64.4547 58.1612C60.648 60.3471 60.648 67.7226 62.1468 69.4877C63.6473 71.2529 62.0695 73.6412 65.0688 75.9461C68.0681 78.2509 72.845 79.0957 75.572 76.4038C78.2989 73.7119 76.2988 67.7065 76.2988 67.7065L71.6073 58.1612Z" fill="#07085B"/>
<path d="M66.967 171.08C66.967 171.08 68.0211 196.475 68.1178 200.86C68.2161 205.244 70.4595 237.783 71.4346 240.61L76.8981 240.22C76.8981 240.22 80.6243 177.219 79.4542 171.08C78.2825 164.941 66.967 171.08 66.967 171.08Z" fill="#FFC0BB"/>
<path d="M130.073 82.6855C130.11 82.8622 130.328 82.9296 130.455 82.8027C131.448 81.8166 134.589 78.7327 134.897 78.9271C135.264 79.1584 132.525 81.9836 132.704 82.3434C132.882 82.7048 135.485 79.8827 135.838 80.1927C136.191 80.5043 133.732 82.9971 133.833 83.1802C133.936 83.3633 136.549 81.2255 136.865 81.2849C137.182 81.3443 134.671 83.964 134.733 84.221C134.794 84.4779 137.129 83.2444 137.258 83.4323C137.387 83.6203 137.505 83.7231 133.045 88.0051L131.218 89.616L129.014 90.1268L127.459 87.899C127.459 87.899 128.726 80.0498 129.024 79.9149C129.311 79.7848 129.514 79.9631 130.073 82.6855Z" fill="#FFC0BB"/>
<path d="M70.5806 171.08L75.1126 187.831C85.5803 187.819 101.196 186.851 108.953 181.687C108.953 181.687 98.8121 134.622 92.0801 122.833L68.9592 121.566C68.9592 121.566 52.9264 143.87 64.6319 187.517C64.6319 187.517 66.6336 187.665 69.8279 187.757L70.5806 171.08Z" fill="#09083C"/>
<path d="M74.8499 76.3797C74.8499 76.3797 75.0561 77.9779 75.1915 79.9117C76.9402 81.3235 79.1997 82.0462 81.556 81.7427C82.3312 81.6431 83.0661 81.4359 83.7543 81.142C83.6995 79.8811 83.7188 78.7119 83.9138 78.1513C84.4521 76.6126 74.8499 76.3797 74.8499 76.3797Z" fill="#F99893"/>
<path d="M91.4838 84.5229L113.388 101.09L127.413 86.725C127.413 86.725 131.608 89.9565 131.608 89.8971C131.608 89.8377 118.423 110.427 115.187 111.505C111.95 112.582 91.0664 98.0483 91.0664 98.0483L91.4838 84.5229Z" fill="#8DB596"/>
<path d="M90.2139 74.5166C90.5136 73.9528 90.7634 73.3586 90.9585 72.7386C91.5161 71.0714 91.7643 69.3127 91.861 67.782C91.8819 67.4544 91.9206 67.1267 91.9674 66.8023C92.1511 65.4868 92.0995 64.1007 91.7417 62.6857C90.5942 58.1323 86.5103 54.8139 81.8139 54.6276C75.4865 54.3771 70.4388 59.5312 70.6515 65.6844C69.9682 65.3358 69.2139 65.2764 68.5612 65.5944C67.3105 66.2048 66.9157 67.9651 67.6796 69.5279C68.4435 71.0891 70.0778 71.86 71.3284 71.2497C71.5025 71.1646 71.6572 71.0553 71.7974 70.9301C72.5114 76.1468 76.9467 80.0402 82.0943 79.7783C84.6117 79.6499 86.8584 78.5496 88.5184 76.8439C88.6296 76.7443 88.7473 76.6271 88.8681 76.4922C89.4032 75.8979 89.8448 75.2297 90.2139 74.5166Z" fill="#FFC0BB"/>
<path d="M80.5792 67.1524C80.6083 67.7065 80.1812 68.1787 79.6251 68.2076C79.0707 68.2365 78.5969 67.8093 78.5695 67.2552C78.5405 66.701 78.9676 66.2288 79.5236 66.1999C80.078 66.1726 80.5502 66.5982 80.5792 67.1524Z" fill="#333333"/>
<path d="M88.8406 67.1524C88.8696 67.7065 88.4425 68.1787 87.8865 68.2076C87.3321 68.2365 86.8583 67.8093 86.8293 67.2552C86.8003 66.701 87.229 66.2288 87.7834 66.1999C88.3394 66.1726 88.8116 66.5982 88.8406 67.1524Z" fill="#333333"/>
<path d="M83.6528 65.2363C83.6463 65.5607 83.6431 65.8835 83.656 66.2064C83.6641 66.5292 83.6834 66.8504 83.7157 67.1717C83.7495 67.4913 83.793 67.8093 83.8704 68.1177C83.9461 68.4245 84.0509 68.7296 84.2314 68.9722C84.2556 69.0011 84.2765 69.0332 84.3039 69.0573C84.3297 69.0846 84.3523 69.1087 84.3861 69.1408C84.4167 69.1713 84.4473 69.2002 84.4747 69.234C84.5038 69.2661 84.5312 69.2998 84.5553 69.3352C84.6569 69.4765 84.731 69.6419 84.7552 69.817C84.8084 70.1704 84.6649 70.5237 84.4393 70.7727C84.2153 71.028 83.9187 71.2031 83.6093 71.3139C83.2966 71.4232 82.9695 71.4729 82.6455 71.4697C82.8067 71.4505 82.9662 71.4232 83.1226 71.3862C83.2789 71.3477 83.4304 71.2963 83.577 71.232C83.8688 71.1051 84.1363 70.9236 84.3329 70.6827C84.5263 70.445 84.6424 70.1382 84.5876 69.8443C84.565 69.6982 84.5038 69.56 84.4135 69.4396C84.3925 69.409 84.3684 69.3801 84.3426 69.3512C84.3184 69.3223 84.291 69.2966 84.2636 69.2693L84.1734 69.1794C84.1411 69.1488 84.117 69.1135 84.0896 69.0798C83.9848 68.94 83.9107 68.7875 83.8494 68.6317C83.7882 68.4759 83.7414 68.3153 83.706 68.1546C83.6351 67.8318 83.5948 67.5058 83.577 67.1813C83.5368 66.5324 83.5674 65.8803 83.6528 65.2363Z" fill="#F99893"/>
<path d="M94.3928 106.171C94.4702 106.089 97.8305 102.51 97.1778 95.7981C96.8232 92.1554 94.9408 88.829 93.2711 86.5274C91.7948 84.4908 89.4466 83.2685 86.9292 83.2219C82.3328 83.1368 74.9965 83.0372 74.9965 83.0372C74.9965 83.0372 65.5312 81.9997 62.5303 85.689C59.531 89.3751 49.3743 114.964 48.7973 127.182C48.2203 139.402 51.2213 153.809 51.2213 153.809C51.2213 153.809 54.5687 154.039 56.0691 153.809C57.5696 153.578 55.7226 130.179 57.3391 126.376C58.9556 122.573 66.2258 104.36 66.6884 102.631L68.4902 112.166C68.8222 113.925 68.6691 115.738 68.0454 117.415C66.5175 121.527 63.5666 129.429 62.3772 132.359C62.3772 132.359 85.1 136.01 96.2962 130.477L96.1947 130.048C94.3316 122.227 93.7369 114.169 94.3928 106.171Z" fill="#8DB596"/>
<path d="M81.4255 65.4772C80.9678 65.2346 80.4923 65.0548 80.0088 64.9343C79.5237 64.8186 79.0289 64.7753 78.5422 64.8219C78.2989 64.8427 78.0571 64.8909 77.8218 64.9584C77.7025 64.9889 77.5881 65.0323 77.4705 65.0724C77.4124 65.0933 77.356 65.1206 77.2996 65.1431C77.2416 65.1656 77.1836 65.1881 77.1288 65.217C76.6791 65.4306 76.2553 65.7117 75.8411 66.0249C76.1489 65.6073 76.5421 65.2459 76.995 64.9696C77.2223 64.8315 77.464 64.7143 77.7203 64.6323C77.9749 64.5472 78.2392 64.4878 78.5084 64.4637C79.045 64.4139 79.5898 64.4862 80.0894 64.6661C80.3408 64.7528 80.5794 64.8684 80.805 65.0017C81.0274 65.1383 81.2434 65.2909 81.4255 65.4772Z" fill="#07085B"/>
<path d="M85.4805 65.4772C85.6626 65.2909 85.8785 65.1383 86.1026 65.0034C86.3282 64.8701 86.5667 64.7544 86.8181 64.6677C87.3178 64.4878 87.8625 64.4155 88.3992 64.4653C88.6683 64.4878 88.9326 64.5472 89.1873 64.634C89.4419 64.7175 89.6853 64.8331 89.9125 64.9712C90.367 65.2475 90.7587 65.6073 91.0665 66.0265C90.6523 65.7133 90.2284 65.4338 89.7788 65.2186C89.724 65.1897 89.6659 65.1672 89.6079 65.1447C89.5499 65.1222 89.4951 65.0949 89.4371 65.074C89.3194 65.0339 89.205 64.9889 89.0858 64.96C88.8505 64.8941 88.6087 64.8444 88.3653 64.8235C87.8786 64.7769 87.3838 64.8203 86.8987 64.9359C86.4136 65.0548 85.9382 65.2346 85.4805 65.4772Z" fill="#07085B"/>
<path d="M91.3564 57.1894C89.3757 50.3922 80.3326 50.1513 80.3326 50.1513C66.3466 51.1198 68.5498 63.3715 69.0107 65.3985C69.4152 65.3053 69.9729 65.3166 70.6498 65.6828C70.935 65.8369 71.1655 65.9992 71.3525 66.163C72.9996 65.6619 73.4992 62.9298 74.3518 61.6144C75.5089 59.8283 80.6082 60.7503 82.5422 59.483C84.4778 58.2158 84.6745 56.2563 84.6745 56.2563C92.1348 57.4368 92.0188 65.3101 92.0188 65.3101C92.3411 65.2378 92.7392 65.2732 92.7392 65.2732C92.7392 65.2732 93.126 63.2623 91.3564 57.1894Z" fill="#07085B"/>
<path d="M86.3956 72.6567C86.141 73.7007 84.9226 74.5021 83.4479 74.5182C81.9732 74.5343 80.7371 73.7601 80.4583 72.7209L86.3956 72.6567Z" fill="white"/>
<path d="M84.0959 238.591L85.9606 239.802C86.8244 240.352 86.4344 241.69 85.4094 241.69H71.2445C70.7449 241.69 70.3403 241.285 70.3403 240.787V237.827C79.775 240.824 83.0322 239.912 84.0959 238.591Z" fill="#07085B"/>
<path d="M93.1374 237.424L94.5267 239.16C95.173 239.953 94.3816 241.1 93.4082 240.777L79.9637 236.323C79.4899 236.166 79.232 235.655 79.39 235.181L80.3231 232.372C88.3331 238.183 91.7127 238.342 93.1374 237.424Z" fill="#07085B"/>
</g>
<g clip-path="url(#clip1)">
<path d="M172.219 41.014C172.219 41.014 172.573 49.8832 173.773 54.6905L176.67 40.3102L172.219 41.014Z" fill="#005692"/>
<path d="M193.677 217.813L195.693 230.583H199.724L199.157 217.813H193.677Z" fill="#F8B78F"/>
<path d="M202.562 236.971V235.766C202.562 235.766 201.037 232.885 200.298 230.523L199.724 230.1L199.039 228.805H196.036L195.657 229.975L195.042 230.464C194.345 233.088 193.683 235.766 193.683 235.766V236.971C193.683 236.971 195.829 239.225 197.809 239.333C197.803 239.333 202.036 239.893 202.562 236.971Z" fill="#6F422E"/>
<path d="M202.562 235.867V236.971C202.036 239.893 197.809 239.333 197.809 239.333C195.829 239.219 193.683 236.971 193.683 236.971V235.867C193.683 235.867 196.272 238.85 200.044 237.919C200.038 237.913 202.243 237.621 202.562 235.867Z" fill="white"/>
<path d="M195.037 234.83C195.108 234.704 195.173 234.585 195.249 234.466L195.255 234.46C195.439 234.245 195.663 234.102 195.917 234.036C195.982 234.018 196.042 234.013 196.112 234.007L196.278 233.989L196.621 233.953C197.076 233.917 197.531 233.899 197.986 233.911C198.442 233.917 198.897 233.935 199.352 233.995L199.523 234.013C199.541 234.018 199.588 234.018 199.624 234.03L199.713 234.054C199.831 234.09 199.949 234.132 200.061 234.203C200.28 234.329 200.511 234.537 200.564 234.836C200.41 234.609 200.197 234.537 199.984 234.496C199.878 234.478 199.772 234.466 199.665 234.466H199.588C199.565 234.466 199.553 234.472 199.517 234.478L199.346 234.496C198.891 234.549 198.436 234.573 197.98 234.579C197.525 234.585 197.07 234.567 196.615 234.537L196.272 234.502L195.947 234.466C195.752 234.46 195.527 234.508 195.338 234.609L195.344 234.603C195.249 234.681 195.143 234.758 195.037 234.83Z" fill="white"/>
<path d="M196.497 231.245C196.987 230.625 198.099 230.625 198.578 231.245C198.82 231.561 199.198 231.078 198.962 230.768C198.282 229.879 196.81 229.885 196.113 230.768C195.87 231.078 196.249 231.561 196.497 231.245Z" fill="white"/>
<path d="M196.237 232.366C196.851 231.722 198.235 231.722 198.832 232.366C199.098 232.647 199.482 232.169 199.216 231.883C198.371 230.977 196.709 230.983 195.858 231.883C195.586 232.164 195.971 232.641 196.237 232.366Z" fill="white"/>
<path d="M195.87 233.535C196.709 232.808 198.37 232.802 199.198 233.535C199.482 233.792 199.754 233.201 199.47 232.951C198.495 232.086 196.585 232.092 195.598 232.951C195.314 233.195 195.586 233.786 195.87 233.535Z" fill="white"/>
<path d="M178.23 227.243H174.093V232.718H178.23V227.243Z" fill="#F8B78F"/>
<path d="M173.596 230.332L161.614 235.187C161.159 235.402 161.324 235.784 161.324 235.784C162.53 237.549 169.381 236.529 169.381 236.529L179.194 234.352C179.259 232.277 178.514 230.106 178.514 230.106H178.195C177.651 230.225 177.338 230.869 176.924 231.215C176.499 231.567 175.913 231.609 175.387 231.597L175.712 231.126C175.819 230.971 175.689 230.893 175.689 230.893L174.057 230.309C174.057 230.309 173.844 230.231 173.596 230.332Z" fill="#6F422E"/>
<path d="M171.568 230.839C172.177 231.072 172.81 231.68 172.969 232.325C173.064 232.7 172.491 232.855 172.402 232.486C172.29 232.05 171.829 231.573 171.415 231.412C171.054 231.281 171.208 230.702 171.568 230.839Z" fill="white"/>
<path d="M170.203 231.311C170.806 231.722 171.296 232.175 171.633 232.832C171.805 233.172 171.296 233.476 171.125 233.136C170.835 232.563 170.428 232.181 169.907 231.824C169.588 231.609 169.884 231.096 170.203 231.311Z" fill="white"/>
<path d="M169.097 231.853C169.618 232.259 170.197 232.7 170.339 233.386C170.416 233.762 169.848 233.923 169.771 233.547C169.653 232.975 169.109 232.611 168.678 232.277C168.376 232.038 168.802 231.621 169.097 231.853Z" fill="white"/>
<path d="M167.903 232.301C168.435 232.676 168.843 233.142 169.139 233.726C169.31 234.066 168.802 234.37 168.631 234.03C168.382 233.535 168.057 233.142 167.608 232.82C167.3 232.599 167.596 232.08 167.903 232.301Z" fill="white"/>
<path d="M179.2 234.353L169.387 236.53C169.387 236.53 162.11 237.532 161.3 235.593C161.3 235.593 161.3 237.532 163.913 237.806C163.913 237.806 166.42 238.229 169.553 237.484L179.2 235.396C179.2 235.396 179.318 235.253 179.2 234.353Z" fill="white"/>
<path d="M188.777 136.296L182.12 184.114L182.209 192.279L178.958 231.132C178.958 231.132 175.535 232.814 172.437 230.607L169.955 179.449L169.665 136.291H188.777V136.296Z" fill="#4772A7"/>
<path d="M187.21 145.691L183.208 176.294C183.048 172.799 182.126 167.019 181.807 163.53C180.335 147.522 176.085 145.309 176.416 145.691H187.21Z" fill="#D1D3D4"/>
<path d="M199.931 136.296L197.637 180.803L199.115 191.14L200.534 229.939C200.534 229.939 198.075 231.74 194.522 230.243L187.405 180.255L180.512 136.291H199.931V136.296Z" fill="#4772A7"/>
<path d="M152.15 111.979C160.213 105.985 169.86 93.2926 169.86 93.2926C169.86 93.2926 175.612 88.1333 172.627 83.9284C172.627 83.9284 170.091 81.8766 164.841 86.5885C157.08 93.728 152.209 99.2571 146.77 106.599L147.752 108.931L152.15 111.979Z" fill="#F8B78F"/>
<path d="M150.045 114.073C148.408 113.041 144.837 108.705 143.608 107.196C138.24 100.605 135.054 96.2212 130.756 91.9089L132.317 89.7915C140.664 94.3722 151.192 105.377 151.192 105.377L156.459 108.323L150.045 114.073Z" fill="#F8B78F"/>
<path d="M155.879 92.8751C155.176 94.5452 157.647 97.6885 159.941 99.7522C161.052 100.754 162.317 101.84 163.683 102.717C172.567 92.6843 176.203 88.0678 177.273 86.1293C177.273 86.1293 180.477 79.2105 174.506 76.3833C174.506 76.3833 170.321 73.8962 167.395 77.445C167.395 77.4569 160.733 85.8549 155.879 92.8751Z" fill="#293351"/>
<path d="M189.036 61.3946H180.323V73.6039H189.036V61.3946Z" fill="#F8B78F"/>
<path d="M189.036 67.0669V61.3887H180.323V67.4963C183.438 67.8303 186.305 68.1285 189.036 67.0669Z" fill="#F6A47A"/>
<path d="M200.008 77.612C197.874 74.2838 196.55 73.8544 196.55 73.8544L188.516 70.8483H180.843L172.81 73.8544C172.81 73.8544 169.458 74.755 167.324 78.0892L200.008 77.612Z" fill="#F8B78F"/>
<path d="M201.61 87.9902L201.947 139.78C201.947 139.78 185.389 144.158 166.952 139.404L168.873 91.044L166.845 78.8228C166.845 75.8645 171.604 74.099 171.604 74.099L178.757 71.6297C178.757 71.6297 178.136 74.8922 181.961 75.1905C181.961 75.1905 190.467 76.5027 190.426 71.5581L200.014 74.6656C200.008 74.6656 202.71 80.9104 201.61 87.9902Z" fill="#262F4A"/>
<path d="M180.299 66.2437C181.629 65.9574 183.905 65.2178 183.905 65.2178C189.096 62.9454 190.875 62.9096 191.75 60.0168C191.773 59.9273 194.274 45.1533 194.274 45.1533C194.345 37.5725 186.412 36.654 185.218 36.5585C184.03 36.3856 176.427 34.9123 174.82 42.3202C174.82 42.3202 172.26 50.9568 174.784 61.2276C176.091 65.0508 177.923 65.9813 177.923 65.9813C177.923 65.9813 178.881 66.4942 180.299 66.2437Z" fill="#F8B78F"/>
<path d="M179.767 55.0782C179.767 55.0782 180.075 55.1856 180.353 55.3645C180.435 55.3944 180.524 55.4182 180.595 55.454C180.672 55.4779 180.749 55.5375 180.826 55.5375C180.902 55.5554 180.979 55.5554 181.038 55.5912C181.109 55.5852 181.18 55.5852 181.245 55.5972C181.316 55.6091 181.393 55.5793 181.47 55.5793C181.541 55.5852 181.63 55.5494 181.712 55.5315C181.89 55.5077 182.037 55.4361 182.215 55.4063C182.386 55.3586 182.546 55.2751 182.664 55.2512C182.782 55.2214 182.859 55.2095 182.859 55.2095C182.859 55.2095 182.853 55.287 182.824 55.4063C182.788 55.5256 182.77 55.6926 182.658 55.8715C182.54 56.0445 182.386 56.2831 182.138 56.4262C182.014 56.4978 181.907 56.6052 181.742 56.635C181.582 56.6708 181.429 56.7244 181.257 56.7244C181.086 56.7065 180.914 56.6767 180.749 56.6469C180.595 56.5873 180.459 56.4859 180.335 56.4083C180.193 56.3368 180.134 56.2055 180.051 56.1041C179.974 56.0027 179.909 55.8954 179.862 55.7999C179.738 55.3645 179.767 55.0782 179.767 55.0782Z" fill="#F6A47A"/>
<path d="M182.806 49.0959C182.877 49.4716 183.208 49.7102 183.551 49.6565C184.745 49.4716 185.962 49.4716 187.157 49.6565C187.499 49.7102 187.83 49.4657 187.901 49.0959C187.972 48.7201 187.718 48.3503 187.334 48.2966C186.022 48.0938 184.692 48.0938 183.373 48.2966C182.995 48.3503 182.741 48.7261 182.806 49.0959Z" fill="#005692"/>
<path d="M174.731 49.0959C174.802 49.4716 175.133 49.7102 175.476 49.6565C176.676 49.4716 177.888 49.4716 179.082 49.6565C179.425 49.7102 179.756 49.4657 179.826 49.0959C179.892 48.7201 179.637 48.3503 179.253 48.2966C177.941 48.0938 176.611 48.0938 175.298 48.2966C174.914 48.3503 174.66 48.7261 174.731 49.0959Z" fill="#005692"/>
<path d="M176.593 51.5353C176.593 50.915 176.936 50.4081 177.362 50.4081C177.787 50.4081 178.13 50.915 178.13 51.5353" stroke="#27303B" stroke-miterlimit="10" stroke-linecap="round" stroke-linejoin="round"/>
<path d="M184.798 51.5353C184.798 50.915 185.141 50.4081 185.572 50.4081C185.998 50.4081 186.341 50.915 186.341 51.5353" stroke="#27303B" stroke-miterlimit="10" stroke-linecap="round" stroke-linejoin="round"/>
<path d="M178.514 59.5874C178.638 61.0964 179.844 62.2833 181.316 62.2833C182.788 62.2833 183.994 61.0964 184.118 59.5874H178.514Z" fill="white"/>
<path d="M126.535 80.2961L129.29 84.2565L130.922 85.5985L131.59 86.3619L133.156 90.3939L131.365 92.4338C128.474 91.5451 126.193 89.4038 126.193 89.4038L126.352 86.3082L122.847 83.0218L122.504 82.3061L123.314 82.2345L127.611 85.169L125.826 80.7136L125.726 79.9561L126.535 80.2961Z" fill="#F8B78F"/>
<path d="M192.081 57.3626L192.678 52.931C191.596 53.265 191.584 55.5554 191.584 55.5554L190.095 55.5435C190.012 49.8832 189.574 46.5669 189.574 46.5669C189.574 46.5669 187.701 43.1851 186.223 41.008L193.417 39.511L195.622 42.183C195.628 42.195 196.81 47.4974 192.081 57.3626Z" fill="#005692"/>
<path d="M193.618 35.3358C193.618 35.3358 196.686 38.8131 194.274 41.014H186.229L180.323 41.7238L172.219 41.014L171.551 37.3995C171.551 37.3995 171.432 33.9461 174.79 31.7571C174.79 31.7571 174.82 32.8486 176.138 33.3497C176.138 33.3497 175.417 30.5642 178.13 29.27C178.13 29.27 177.645 32.8486 182.794 33.5465C182.8 33.5465 192.004 31.9599 193.618 35.3358Z" fill="#005692"/>
<path d="M191.472 53.5573C191.472 53.5573 192.554 50.5452 194.771 52.096C194.771 52.096 195.775 52.764 194.771 54.7979C194.771 54.7979 193.31 57.7324 191.159 56.3487L191.472 53.5573Z" fill="#F8B78F"/>
<path d="M209.969 113.81L208.219 96.4836L197.129 97.1218L202.402 116.125L209.969 113.81Z" fill="#F8B78F"/>
<path d="M209.969 113.81C210.477 122.441 209.088 146.967 209.088 146.967L206.546 147.128L203.543 128.071L202.396 116.125L204.501 111.574L209.969 113.81Z" fill="#F8B78F"/>
<path d="M198.376 105.609C195.758 92.6067 194.274 85.5925 194.274 85.5925C194.274 85.5925 190.035 73.3414 200.008 74.6656C200.008 74.6656 205.175 76.0672 207.409 84.8171C207.409 84.8171 209.791 93.9606 210.412 103.701C206.818 105.323 202.562 105.943 198.376 105.609Z" fill="#262F4A"/>
<path d="M209.094 146.967L210.081 152.401L208.414 155.377L205.175 158.962V157.918L206.576 154.041L206.174 150.731L206.552 147.128L209.094 146.967Z" fill="#F8B78F"/>
<path d="M206.392 148.655L204.512 152.52C204.512 152.52 205.724 154.214 207.409 150.587L206.392 148.655Z" fill="#F8B78F"/>
</g>
<defs>
<clipPath id="clip0">
<rect width="88.5785" height="191.537" fill="white" transform="translate(48.7231 50.1513)"/>
</clipPath>
<clipPath id="clip1">
<rect width="98.8383" height="212.294" fill="white" transform="translate(122.504 29.27)"/>
</clipPath>
</defs>
</svg>
