<svg width="188" height="60" viewBox="0 0 188 60" fill="none" xmlns="http://www.w3.org/2000/svg">
<path d="M22.1657 30.9476C21.9458 30.6089 21.5698 30.4085 21.1684 30.4101L12.8561 30.4431L12.8043 17.3809C12.8021 16.8204 12.4083 16.3374 11.8592 16.2232C11.3006 16.1067 10.7555 16.3962 10.5295 16.9078L1.11458 38.32C0.952156 38.6864 0.989477 39.1137 1.2093 39.4477C1.42914 39.7841 1.80519 39.9869 2.20655 39.9853L10.5189 39.9523L10.5707 53.0145C10.5729 53.575 10.9667 54.0579 11.5158 54.1721C11.599 54.1884 11.6822 54.1976 11.7629 54.1973C12.2236 54.1954 12.6524 53.9254 12.8455 53.4876L22.2604 32.0754C22.4205 31.7066 22.3879 31.284 22.1657 30.9476Z" fill="white"/>
<path d="M40.6477 49.5332L43.7197 49.5211C44.1037 49.5195 44.3427 49.2786 44.341 48.8466L44.2425 24.0308C44.2316 21.2948 45.7124 19.4649 48.1124 19.4554C50.5124 19.4459 52.0076 21.2639 52.0184 23.9999L52.1169 48.8157C52.1186 49.2477 52.4076 49.4866 52.7916 49.485L55.8156 49.473C56.2476 49.4713 56.4866 49.2304 56.4849 48.7984L56.3872 24.1746C56.3666 18.9906 53.0881 15.3556 48.0962 15.3754C43.1042 15.3952 39.9027 19.056 39.9233 24.2399L40.021 48.8637C40.0227 49.2957 40.2637 49.5348 40.6477 49.5332ZM68.5456 49.9025C72.8656 49.8854 75.8778 46.8974 76.1 42.4325C76.0985 42.0485 75.8576 41.8094 75.4736 41.811L72.6416 41.8222C72.2576 41.8237 72.0184 42.0167 71.9721 42.4489C71.8364 44.5614 70.5462 46.0066 68.5782 46.0144C66.3702 46.0231 65.0681 44.4923 65.0594 42.2843L65.0495 39.7883L68.6014 39.7742C73.1614 39.7561 76.2214 36.72 76.2046 32.496C76.1871 28.08 73.0063 24.8766 68.4946 24.9425C63.8866 24.9608 60.9232 28.1406 60.8933 32.7008L60.9306 42.1087C60.9493 46.8127 64.0337 49.9204 68.5456 49.9025ZM65.0346 36.0444L65.0211 32.6364C65.0119 30.3324 66.254 28.8395 68.51 28.8305C70.718 28.8217 72.0679 30.3044 72.077 32.6084C72.085 34.6244 70.7945 36.0215 68.5866 36.0303L65.0346 36.0444ZM80.3347 49.3757L83.1667 49.3645C83.5507 49.363 83.7898 49.122 83.7881 48.69L83.766 43.1221C83.757 40.8661 85.0469 39.325 87.1109 39.3168C89.2229 39.3084 90.5249 40.8392 90.5339 43.0952L90.556 48.6632C90.5577 49.0952 90.7987 49.3342 91.1827 49.3327L94.0146 49.3214C94.3986 49.3199 94.6377 49.079 94.636 48.647L94.6144 43.223C94.6045 40.727 93.4444 38.6676 91.423 37.3316C93.4339 36.0276 94.5779 34.0071 94.568 31.5111L94.5459 25.9432C94.5443 25.5592 94.3034 25.3201 93.9194 25.3216L91.0874 25.3329C90.7034 25.3344 90.4644 25.5753 90.4659 25.9593L90.4886 31.6713C90.4973 33.8793 89.2074 35.4204 87.0955 35.4288C85.0315 35.437 83.7294 33.9061 83.7206 31.6982L83.6979 25.9862C83.6964 25.6022 83.4555 25.3632 83.0715 25.3647L80.2395 25.3759C79.8075 25.3776 79.5685 25.6186 79.57 26.0026L79.5921 31.5705C79.602 34.0665 80.81 36.0777 82.8311 37.3657C80.8205 38.7177 79.6287 40.7865 79.6386 43.2825L79.6601 48.7064C79.6618 49.1384 79.9028 49.3775 80.3347 49.3757ZM108.766 45.5189L108.238 45.521C105.79 45.5307 104.536 43.9996 104.524 40.9757L104.476 29.0238L108.172 29.0091C108.556 29.0076 108.795 28.7666 108.794 28.3826L108.784 25.8866C108.782 25.5026 108.541 25.2636 108.157 25.2651L104.461 25.2798L104.437 19.0878C104.435 18.6558 104.194 18.4168 103.81 18.4183L101.026 18.4294C100.594 18.4311 100.355 18.672 100.357 19.104L100.381 25.296L97.6934 25.3067C97.3094 25.3082 97.0703 25.5491 97.0718 25.9331L97.0817 28.4291C97.0833 28.8131 97.3242 29.0521 97.7082 29.0506L100.396 29.04L100.443 40.9439C100.464 46.2238 103.309 49.4286 108.061 49.4097L108.781 49.4068C109.213 49.4051 109.452 49.1642 109.451 48.7802L109.44 46.1402C109.439 45.7562 109.198 45.5172 108.766 45.5189ZM136.719 15.5517L121.983 15.6102C121.599 15.6117 121.36 15.8526 121.362 16.2366L121.373 18.9726C121.374 19.4046 121.615 19.6437 121.999 19.6421L127.231 19.6214L127.346 48.5172C127.348 48.9492 127.589 49.1882 127.972 49.1867L130.996 49.1747C131.428 49.173 131.668 48.932 131.666 48.5L131.551 19.6042L136.735 19.5837C137.167 19.5819 137.406 19.341 137.404 18.909L137.394 16.173C137.392 15.789 137.151 15.55 136.719 15.5517ZM138.139 25.1461C137.707 25.1479 137.468 25.3888 137.469 25.8208L137.533 41.8527C137.551 46.4126 140.588 49.6646 145.052 49.6469C149.516 49.6292 152.527 46.3532 152.509 41.7932L152.445 25.7614C152.444 25.3294 152.203 25.0903 151.771 25.092L148.987 25.1031C148.555 25.1048 148.316 25.3457 148.317 25.7777L148.381 41.9536C148.39 44.2096 147.149 45.7505 145.037 45.7589C142.925 45.7673 141.67 44.2363 141.662 41.9803L141.597 25.8044C141.596 25.3724 141.355 25.1334 140.923 25.1351L138.139 25.1461ZM157.359 49.07L160.143 49.059C160.575 49.0573 160.814 48.8163 160.812 48.3843L160.751 33.0245C160.741 30.4325 162.367 28.842 164.863 28.8321L166.59 28.8252C166.974 28.8237 167.214 28.5828 167.212 28.1988L167.202 25.6068C167.2 25.1748 166.959 24.9358 166.575 24.9373L164.799 24.9443C159.951 24.9636 156.604 28.1929 156.624 33.3768L156.684 48.4007C156.686 48.8327 156.927 49.0718 157.359 49.07ZM170.156 49.0193L172.94 49.0082C173.372 49.0065 173.611 48.7655 173.609 48.3335L173.545 32.1577C173.536 29.9017 174.778 28.3607 176.89 28.3524C179.002 28.344 180.256 29.875 180.265 32.131L180.329 48.3069C180.331 48.7389 180.571 48.9779 181.003 48.9762L183.787 48.9652C184.219 48.9634 184.458 48.7225 184.457 48.2905L184.393 32.2586C184.375 27.6987 181.338 24.4467 176.874 24.4644C172.41 24.4821 169.399 27.7581 169.417 32.3181L169.481 48.3499C169.483 48.7819 169.724 49.021 170.156 49.0193Z" fill="white"/>
</svg>
