<svg width="271" height="271" viewBox="0 0 271 271" fill="none" xmlns="http://www.w3.org/2000/svg">
<rect y="0.732117" width="270.065" height="270.065" rx="135.033" fill="white"/>
<path d="M124.876 239.612C150.825 239.612 171.861 235.169 171.861 229.687C171.861 224.205 150.825 219.761 124.876 219.761C98.9274 219.761 77.8916 224.205 77.8916 229.687C77.8916 235.169 98.9274 239.612 124.876 239.612Z" fill="#ECEDEB"/>
<path d="M171.095 35.5596C170.521 35.5596 164.971 34.2235 160.378 38.6138C155.785 43.004 157.22 48.5396 158.177 51.4983C159.134 54.457 159.134 55.5068 158.56 56.4612C157.986 57.4156 155.211 60.2789 154.924 61.2333C154.541 62.1877 162.483 66.3871 162.483 66.3871L168.703 62.7603C168.703 62.7603 174.253 66.1008 174.732 65.9099C175.306 65.719 177.124 62.7603 178.751 55.984C180.378 49.2077 179.995 44.0539 177.794 40.2363C175.689 36.2277 171.095 35.5596 171.095 35.5596Z" fill="#F6BA99"/>
<path d="M167.363 50.1622C167.363 50.1622 166.407 47.3944 164.78 49.7804C163.153 52.1664 163.631 53.9798 164.397 54.3616C165.163 54.7433 165.163 54.7433 165.163 54.7433C165.163 54.7433 164.78 56.5567 165.928 58.7518C167.076 60.947 168.703 62.5695 168.703 62.5695" stroke="#393762" stroke-width="0.5" stroke-miterlimit="10"/>
<path d="M179.325 44.0539C179.038 42.6223 178.559 41.2861 177.89 40.1408C175.689 36.3232 171.095 35.5596 171.095 35.5596C170.521 35.5596 164.971 34.2235 160.378 38.6138C155.785 43.004 157.22 48.5396 158.177 51.4983C158.847 53.6934 159.038 54.8387 158.847 55.6977C160.091 55.7931 161.622 55.7931 163.153 55.4114C165.928 54.6478 166.502 51.5937 165.928 50.4484C165.354 49.3031 166.885 48.2533 166.885 48.2533C166.885 48.2533 168.033 51.212 169.277 49.3986C170.521 47.5852 168.32 45.0083 170.521 43.4812C172.722 42.0496 175.115 42.0496 177.89 43.4812C178.368 43.6721 178.846 43.863 179.325 44.0539Z" fill="#393762"/>
<path d="M179.325 44.0539C179.325 44.0539 180.569 44.9129 182.483 42.5268C184.301 40.1408 184.301 35.9414 182.866 36.9913C181.43 38.0411 180.856 38.6138 180.856 38.6138C180.856 38.6138 179.421 32.2192 177.315 32.8873C175.306 33.6508 175.306 35.4642 175.306 35.4642C175.306 35.4642 171.478 32.5055 170.713 33.46C169.947 34.4144 169.469 34.7007 169.469 34.7007C169.469 34.7007 169.851 34.8916 168.703 35.2733C167.555 35.6551 166.694 36.8958 166.694 36.8958C166.694 36.8958 172.722 37.7548 174.54 39.5682C176.454 41.3816 179.325 44.0539 179.325 44.0539Z" fill="#393762"/>
<path d="M166.311 74.595C166.311 74.595 169.66 75.7403 169.852 81.1804C170.043 86.716 174.253 100.841 174.253 100.841C174.253 100.841 179.229 95.3057 180.186 94.2558C181.143 93.1106 182.961 92.8242 184.779 95.8783C186.598 99.0279 186.023 102.655 183.344 107.045C180.569 111.435 175.402 118.021 171.191 117.353C166.981 116.589 159.995 103.991 159.804 102.464C159.612 101.032 163.153 86.1434 163.632 83.7573C164.11 81.3713 166.311 74.595 166.311 74.595Z" fill="#393762"/>
<path d="M125.833 127.66C125.833 127.66 123.25 131.192 124.207 134.436C125.163 137.777 126.599 140.831 126.599 140.831C126.599 140.831 120.475 160.492 119.039 164.596C117.604 168.604 118.656 168.986 114.829 171.372C111.001 173.758 102.484 177.099 99.7094 185.879C96.9343 194.66 93.298 202.963 92.1497 205.158C91.0014 207.353 90.523 208.69 88.1307 208.69C85.7384 208.69 81.7193 207.544 81.3366 210.694C80.9538 213.843 81.3366 218.425 81.3366 219.474C81.3366 220.524 78.5615 222.433 79.7098 226.251C80.8581 230.068 82.8676 233.6 83.9202 233.981C85.0685 234.363 87.0781 233.791 87.2695 232.836C87.4608 231.882 85.2599 230.45 86.3125 227.11C87.4608 223.769 92.9153 218.52 96.0731 215.561C99.2309 212.603 106.599 199.623 112.054 193.705C117.604 187.788 123.824 180.535 128.226 176.621C132.627 172.804 141.622 157.915 143.536 154.575C145.354 151.234 147.364 146.653 147.364 146.653C147.364 146.653 166.694 150.28 170.043 150.852C173.392 151.425 176.646 152.475 176.646 152.475C176.646 152.475 170.904 157.438 169.469 165.168C168.033 172.899 164.684 186.834 163.057 191.415C161.431 195.996 160.091 198.764 159.038 201.15C157.89 203.536 156.072 206.685 157.412 208.117C158.656 209.549 165.737 210.503 169.182 211.076C172.722 211.648 179.516 211.457 180.952 210.121C182.387 208.88 182.579 208.117 181.717 207.926C180.76 207.735 175.689 204.395 174.158 203.154C172.722 201.913 171.574 199.623 171.765 198.764C171.957 197.809 180.186 179.676 183.918 172.327C187.555 164.978 191.669 152.093 192.722 149.23C193.87 146.271 194.157 145.699 193.105 144.267C191.956 142.835 185.162 137.681 173.775 131.382C162.196 125.274 155.976 125.083 152.531 124.511C148.991 123.938 143.154 118.593 135.211 122.125C127.269 125.656 125.833 127.66 125.833 127.66Z" fill="#F6BA99"/>
<path d="M166.885 72.7817C166.885 72.7817 167.65 79.7488 166.311 89.4838C165.067 99.2188 157.986 113.726 157.507 117.162C156.933 120.693 159.325 122.888 158.655 123.938C157.794 125.083 156.359 125.465 154.541 125.465C152.723 125.465 145.546 123.652 139.804 124.702C134.063 125.847 127.843 130.905 126.599 130.428C125.355 129.855 123.249 127.66 124.589 125.465C125.833 123.27 127.173 121.934 128.225 119.739C129.374 117.543 134.828 100.078 136.168 94.4468C137.412 88.7203 136.933 82.1349 136.742 77.5537C136.551 72.9725 140.378 65.4327 143.345 64.3828C146.311 63.2376 154.541 65.5281 155.498 65.5281C156.359 65.4327 165.162 68.2005 166.885 72.7817Z" fill="#393762"/>
<path d="M162.388 71.35C162.388 71.35 166.598 76.6947 167.172 76.313C167.746 75.9312 169.756 74.1178 168.129 69.7275C166.502 65.3373 162.579 62.3786 158.56 58.9427C154.541 55.4114 150.235 50.1621 147.555 53.2163C144.78 56.3658 139.613 63.5239 141.814 65.9099C144.015 68.2959 155.594 68.8686 158.177 69.7275C160.761 70.5865 162.388 71.35 162.388 71.35Z" fill="#7EB9F5"/>
<path d="M116.647 109.813C116.647 109.813 117.221 112.008 118.656 114.394C120.092 116.78 120.857 119.357 119.9 120.311C118.943 121.266 118.943 121.266 115.307 122.315C111.671 123.461 110.14 122.697 109.757 121.743C109.374 120.788 110.905 119.739 110.905 119.739C110.905 119.739 108.513 119.166 108.513 116.78C108.513 114.394 109.278 109.622 109.278 109.622L116.455 109.049L116.647 109.813Z" fill="#F6BA99"/>
<path d="M107.939 105.995C107.939 105.995 107.747 109.622 108.896 110.576C110.044 111.531 115.881 110.576 116.647 109.813C117.412 109.049 117.604 104.277 117.604 104.277L107.939 105.995Z" fill="#7EB9F5"/>
<path d="M152.627 70.0139C152.627 70.0139 150.043 67.2461 146.216 66.0054C142.388 64.7646 130.235 65.6236 121.718 67.8187C113.298 70.0139 109.757 69.823 108.513 73.1634C107.269 76.5039 105.164 102.177 105.547 105.136C105.929 108.095 111.767 108.286 114.542 107.522C117.317 106.759 119.518 104.945 120.474 101.128C121.431 97.31 121.24 83.4711 122.484 82.0395C123.728 80.6078 139.039 81.4668 143.249 80.8942C147.46 80.3215 150.426 79.0808 151.192 77.9355" fill="#393762"/>
<path d="M182.483 92.9197C182.483 92.9197 179.325 94.5422 179.899 97.31C180.474 100.078 183.249 102.082 184.301 101.891C185.449 101.7 187.65 98.7416 187.65 98.7416C187.65 98.7416 188.033 91.4881 182.483 92.9197Z" fill="#7EB9F5"/>
<path d="M182.1 95.0194C182.1 95.0194 183.535 99.2188 185.449 99.4097C187.267 99.6005 188.224 98.4553 190.425 96.2601C192.626 94.065 194.827 92.4425 194.827 89.4838C194.827 86.5251 194.062 82.5166 192.435 82.3257C190.808 82.1348 189.468 82.7075 189.468 82.7075C189.468 82.7075 188.894 81.5622 187.267 82.8984C185.641 84.1391 186.023 85.0935 185.067 86.716C184.11 88.3385 183.918 89.102 184.11 90.5337C184.301 91.9653 184.301 92.5379 184.301 92.5379L182.1 95.0194Z" fill="#F6BA99"/>
<path d="M189.468 82.7075C190.043 83.6619 190.904 88.6249 190.234 89.2929C189.468 90.0565 188.224 91.4881 187.842 89.8656C187.459 88.2431 186.693 85.8571 186.693 85.8571" stroke="#393762" stroke-width="0.5" stroke-miterlimit="10"/>
<path d="M173.679 131.478C162.196 125.274 155.976 125.083 152.531 124.511C148.991 123.938 143.153 118.593 135.211 122.125C127.269 125.656 125.833 127.66 125.833 127.66C125.833 127.66 123.249 131.192 124.206 134.436C125.163 137.777 126.599 140.831 126.599 140.831C126.599 140.831 120.474 160.492 119.039 164.596C118.943 164.787 118.943 164.978 118.848 165.168C120.474 165.741 122.388 166.409 124.589 167.364C128.225 168.891 130.331 171.372 131.383 173.281C135.977 167.364 142.101 157.342 143.536 154.67C145.354 151.33 147.364 146.748 147.364 146.748C147.364 146.748 166.694 150.375 170.043 150.948C171.191 151.139 172.244 151.425 173.296 151.616C173.775 148.753 174.732 144.935 176.741 141.404C178.559 138.159 180.282 136.632 181.43 135.964C179.038 134.532 176.55 133.1 173.679 131.478Z" fill="#DA5955"/>
<path d="M180.856 210.217C182.291 208.976 182.483 208.212 181.621 208.021C180.665 207.831 175.593 204.49 174.062 203.249C172.626 202.009 171.478 199.718 171.67 198.859C171.765 198.573 172.626 196.473 173.966 193.514C172.531 193.896 170.617 194.278 169.086 194.087C167.268 193.896 164.588 192.942 162.77 192.274C161.239 196.378 159.995 199.05 159.038 201.245C157.89 203.631 156.072 206.781 157.411 208.212C158.655 209.644 165.737 210.598 169.182 211.171C172.531 211.744 179.325 211.553 180.856 210.217Z" fill="#DECBB6"/>
<path d="M181.526 208.022C180.569 207.831 175.497 204.49 173.966 203.25C172.531 202.009 171.382 199.718 171.574 198.859C171.574 198.859 170.808 196.473 169.182 196.091C167.555 195.71 166.789 200.673 166.789 200.673L159.804 199.241C159.517 199.909 159.23 200.577 158.942 201.15C157.794 203.536 155.976 206.685 157.316 208.117C158.56 209.549 165.641 210.503 169.086 211.076C172.626 211.648 179.421 211.457 180.856 210.121C182.291 208.976 182.483 208.212 181.526 208.022Z" fill="#393762"/>
<path d="M94.3506 211.362C92.7239 210.121 91.767 208.117 91.2885 206.685C90.6187 207.926 89.8531 208.594 88.035 208.594C85.6427 208.594 81.6236 207.449 81.2409 210.598C80.8581 213.748 81.2409 218.329 81.2409 219.379C81.2409 220.524 78.4658 222.338 79.6141 226.155C80.7624 229.973 82.7719 233.504 83.8245 233.886C84.9728 234.268 86.9824 233.695 87.1738 232.741C87.3651 231.786 85.1642 230.355 86.2168 227.014C87.3651 223.674 92.8196 218.425 95.9774 215.466C96.5516 214.989 97.2214 214.13 97.9869 212.984C96.8386 212.794 95.4989 212.221 94.3506 211.362Z" fill="#DECBB6"/>
<path d="M91.4799 219.952C91.3842 219.665 91.1928 219.474 91.0014 219.188C89.8531 217.756 88.035 219.379 88.035 219.379C88.035 219.379 86.2168 217.375 86.4082 214.607C86.5039 212.507 88.4177 209.549 89.279 208.403C88.8962 208.499 88.5134 208.594 88.035 208.594C85.6427 208.594 81.6236 207.449 81.2409 210.598C80.8581 213.748 81.2409 218.329 81.2409 219.379C81.2409 220.524 78.4658 222.338 79.6141 226.155C80.7624 229.973 82.7719 233.504 83.8245 233.886C84.9728 234.268 86.9824 233.695 87.1738 232.741C87.3651 231.786 85.1642 230.355 86.2168 227.014C86.8867 225.201 89.1833 222.433 91.4799 219.952Z" fill="#393762"/>
</svg>
